<?xml version="1.0" encoding="UTF-8" standalone="no"?><svg xmlns="http://www.w3.org/2000/svg" xmlns:xlink="http://www.w3.org/1999/xlink" contentScriptType="application/ecmascript" contentStyleType="text/css" height="463px" preserveAspectRatio="none" style="width:924px;height:463px;background:#FEFEFE;" version="1.1" viewBox="0 0 924 463" width="924px" zoomAndPan="magnify"><defs><filter height="300%" id="fmyubb9o60shf" width="300%" x="-1" y="-1"><feGaussianBlur result="blurOut" stdDeviation="2.0"/><feColorMatrix in="blurOut" result="blurOut2" type="matrix" values="0 0 0 0 0 0 0 0 0 0 0 0 0 0 0 0 0 0 .4 0"/><feOffset dx="4.0" dy="4.0" in="blurOut2" result="blurOut3"/><feBlend in="SourceGraphic" in2="blurOut3" mode="normal"/></filter></defs><g><text fill="#000000" font-family="sans-serif" font-size="18" lengthAdjust="spacing" textLength="90" x="415" y="30.6855">処理フロー</text><rect fill="#FEFEFE" filter="url(#fmyubb9o60shf)" height="123.4063" style="stroke:#000000;stroke-width:2.0;" width="900" x="10" y="154.9531"/><rect fill="#FEFEFE" filter="url(#fmyubb9o60shf)" height="48.7031" style="stroke:#000000;stroke-width:2.0;" width="671" x="10" y="339.0625"/><line style="stroke:#A80036;stroke-width:1.0;stroke-dasharray:5.0,5.0;" x1="139" x2="139" y1="91.25" y2="404.7656"/><line style="stroke:#A80036;stroke-width:1.0;stroke-dasharray:5.0,5.0;" x1="349" x2="349" y1="91.25" y2="404.7656"/><line style="stroke:#A80036;stroke-width:1.0;stroke-dasharray:5.0,5.0;" x1="512" x2="512" y1="91.25" y2="404.7656"/><line style="stroke:#A80036;stroke-width:1.0;stroke-dasharray:5.0,5.0;" x1="633" x2="633" y1="91.25" y2="404.7656"/><line style="stroke:#A80036;stroke-width:1.0;stroke-dasharray:5.0,5.0;" x1="790" x2="790" y1="91.25" y2="404.7656"/><rect fill="#FEFECE" filter="url(#fmyubb9o60shf)" height="31.6094" style="stroke:#A80036;stroke-width:1.5;" width="235" x="20" y="54.6406"/><text fill="#000000" font-family="sans-serif" font-size="14" lengthAdjust="spacing" textLength="221" x="27" y="76.1738">結合セルにコピーSubプロシージャ</text><rect fill="#FEFECE" filter="url(#fmyubb9o60shf)" height="31.6094" style="stroke:#A80036;stroke-width:1.5;" width="235" x="20" y="403.7656"/><text fill="#000000" font-family="sans-serif" font-size="14" lengthAdjust="spacing" textLength="221" x="27" y="425.2988">結合セルにコピーSubプロシージャ</text><text fill="#000000" font-family="sans-serif" font-size="14" lengthAdjust="spacing" textLength="154" x="269" y="88.1738">クリップボードのデータ</text><ellipse cx="349" cy="57.6406" fill="#FEFECE" filter="url(#fmyubb9o60shf)" rx="12" ry="12" style="stroke:#A80036;stroke-width:2.0;"/><line style="stroke:#A80036;stroke-width:2.0;" x1="337" x2="361" y1="71.6406" y2="71.6406"/><text fill="#000000" font-family="sans-serif" font-size="14" lengthAdjust="spacing" textLength="154" x="269" y="418.2988">クリップボードのデータ</text><ellipse cx="349" cy="437.375" fill="#FEFECE" filter="url(#fmyubb9o60shf)" rx="12" ry="12" style="stroke:#A80036;stroke-width:2.0;"/><line style="stroke:#A80036;stroke-width:2.0;" x1="337" x2="361" y1="451.375" y2="451.375"/><text fill="#000000" font-family="sans-serif" font-size="14" lengthAdjust="spacing" textLength="140" x="439" y="88.1738">データを格納した配列</text><ellipse cx="512" cy="57.6406" fill="#FEFECE" filter="url(#fmyubb9o60shf)" rx="12" ry="12" style="stroke:#A80036;stroke-width:2.0;"/><line style="stroke:#A80036;stroke-width:2.0;" x1="500" x2="524" y1="71.6406" y2="71.6406"/><text fill="#000000" font-family="sans-serif" font-size="14" lengthAdjust="spacing" textLength="140" x="439" y="418.2988">データを格納した配列</text><ellipse cx="512" cy="437.375" fill="#FEFECE" filter="url(#fmyubb9o60shf)" rx="12" ry="12" style="stroke:#A80036;stroke-width:2.0;"/><line style="stroke:#A80036;stroke-width:2.0;" x1="500" x2="524" y1="451.375" y2="451.375"/><text fill="#000000" font-family="sans-serif" font-size="14" lengthAdjust="spacing" textLength="70" x="595" y="88.1738">選択中セル</text><ellipse cx="633" cy="57.6406" fill="#FEFECE" filter="url(#fmyubb9o60shf)" rx="12" ry="12" style="stroke:#A80036;stroke-width:2.0;"/><line style="stroke:#A80036;stroke-width:2.0;" x1="621" x2="645" y1="71.6406" y2="71.6406"/><text fill="#000000" font-family="sans-serif" font-size="14" lengthAdjust="spacing" textLength="70" x="595" y="418.2988">選択中セル</text><ellipse cx="633" cy="437.375" fill="#FEFECE" filter="url(#fmyubb9o60shf)" rx="12" ry="12" style="stroke:#A80036;stroke-width:2.0;"/><line style="stroke:#A80036;stroke-width:2.0;" x1="621" x2="645" y1="451.375" y2="451.375"/><rect fill="#FEFECE" filter="url(#fmyubb9o60shf)" height="31.6094" style="stroke:#A80036;stroke-width:1.5;" width="215" x="681" y="54.6406"/><text fill="#000000" font-family="sans-serif" font-size="14" lengthAdjust="spacing" textLength="201" x="688" y="76.1738">redimPreserveFor1stDimension</text><rect fill="#FEFECE" filter="url(#fmyubb9o60shf)" height="31.6094" style="stroke:#A80036;stroke-width:1.5;" width="215" x="681" y="403.7656"/><text fill="#000000" font-family="sans-serif" font-size="14" lengthAdjust="spacing" textLength="201" x="688" y="425.2988">redimPreserveFor1stDimension</text><polygon fill="#A80036" points="337,135.9531,347,139.9531,337,143.9531,341,139.9531" style="stroke:#A80036;stroke-width:1.0;"/><line style="stroke:#A80036;stroke-width:1.0;" x1="139.5" x2="343" y1="139.9531" y2="139.9531"/><text fill="#000000" font-family="sans-serif" font-size="13" lengthAdjust="spacing" textLength="156" x="146.5" y="118.7451">クリップボードのデータが</text><text fill="#000000" font-family="sans-serif" font-size="13" lengthAdjust="spacing" textLength="182" x="146.5" y="135.0967">テキスト形式であるかチェック</text><path d="M10,154.9531 L146,154.9531 L146,162.9531 L136,172.9531 L10,172.9531 L10,154.9531 " fill="#EEEEEE" style="stroke:#000000;stroke-width:1.0;"/><rect fill="none" height="123.4063" style="stroke:#000000;stroke-width:2.0;" width="900" x="10" y="154.9531"/><text fill="#000000" font-family="sans-serif" font-size="13" font-weight="bold" lengthAdjust="spacing" textLength="91" x="25" y="169.4482">データ取り込み</text><polygon fill="#A80036" points="150.5,191.6563,140.5,195.6563,150.5,199.6563,146.5,195.6563" style="stroke:#A80036;stroke-width:1.0;"/><line style="stroke:#A80036;stroke-width:1.0;" x1="144.5" x2="348" y1="195.6563" y2="195.6563"/><text fill="#000000" font-family="sans-serif" font-size="13" lengthAdjust="spacing" textLength="78" x="156.5" y="190.7998">データを取得</text><polygon fill="#A80036" points="778.5,222.0078,788.5,226.0078,778.5,230.0078,782.5,226.0078" style="stroke:#A80036;stroke-width:1.0;"/><line style="stroke:#A80036;stroke-width:1.0;" x1="139.5" x2="784.5" y1="226.0078" y2="226.0078"/><text fill="#000000" font-family="sans-serif" font-size="13" lengthAdjust="spacing" textLength="254" x="146.5" y="221.1514">配列の1次元目の要素数を変更する際に利用</text><polygon fill="#A80036" points="150.5,236.0078,140.5,240.0078,150.5,244.0078,146.5,240.0078" style="stroke:#A80036;stroke-width:1.0;"/><line style="stroke:#A80036;stroke-width:1.0;" x1="144.5" x2="789.5" y1="240.0078" y2="240.0078"/><polygon fill="#A80036" points="500,266.3594,510,270.3594,500,274.3594,504,270.3594" style="stroke:#A80036;stroke-width:1.0;"/><line style="stroke:#A80036;stroke-width:1.0;" x1="139.5" x2="506" y1="270.3594" y2="270.3594"/><text fill="#000000" font-family="sans-serif" font-size="13" lengthAdjust="spacing" textLength="273" x="146.5" y="265.5029">クリップボードから二次元配列にデータを移す</text><polygon fill="#A80036" points="500,320.0625,510,324.0625,500,328.0625,504,324.0625" style="stroke:#A80036;stroke-width:1.0;"/><line style="stroke:#A80036;stroke-width:1.0;" x1="139.5" x2="506" y1="324.0625" y2="324.0625"/><text fill="#000000" font-family="sans-serif" font-size="13" lengthAdjust="spacing" textLength="234" x="146.5" y="302.8545">空欄のみの行、空欄のみの列を記録し、</text><text fill="#000000" font-family="sans-serif" font-size="13" lengthAdjust="spacing" textLength="156" x="146.5" y="319.2061">貼り付けする際に除外する</text><path d="M10,339.0625 L146,339.0625 L146,347.0625 L136,357.0625 L10,357.0625 L10,339.0625 " fill="#EEEEEE" style="stroke:#000000;stroke-width:1.0;"/><rect fill="none" height="48.7031" style="stroke:#000000;stroke-width:2.0;" width="671" x="10" y="339.0625"/><text fill="#000000" font-family="sans-serif" font-size="13" font-weight="bold" lengthAdjust="spacing" textLength="91" x="25" y="353.5576">データ貼り付け</text><polygon fill="#A80036" points="621,375.7656,631,379.7656,621,383.7656,625,379.7656" style="stroke:#A80036;stroke-width:1.0;"/><line style="stroke:#A80036;stroke-width:1.0;" x1="139.5" x2="627" y1="379.7656" y2="379.7656"/><text fill="#000000" font-family="sans-serif" font-size="13" lengthAdjust="spacing" textLength="273" x="146.5" y="374.9092">選択しているセルを起点として配列を貼付する</text><!--MD5=[81a22cea40b6c2270a47a78d569156d1]
@startuml

skinparam{
    BackgroundColor #fefefe
}

title 処理フロー
participant 結合セルにコピーSubプロシージャ as sub
entity クリップボードのデータ as cDt
entity データを格納した配列 as arr
entity 選択中セル as c
participant redimPreserveFor1stDimension as f

sub -> cDt:クリップボードのデータが\nテキスト形式であるかチェック

group データ取り込み
    cDt -> sub:データを取得
    sub -> f:配列の1次元目の要素数を変更する際に利用
    f -> sub
    sub -> arr:クリップボードから二次元配列にデータを移す
end

sub -> arr:空欄のみの行、空欄のみの列を記録し、\n貼り付けする際に除外する

group データ貼り付け
    sub -> c:選択しているセルを起点として配列を貼付する
end


@enduml

PlantUML version 1.2021.00(Sun Jan 10 19:25:05 JST 2021)
(GPL source distribution)
Java Runtime: Java(TM) SE Runtime Environment
JVM: Java HotSpot(TM) 64-Bit Server VM
Default Encoding: MS932
Language: ja
Country: JP
--></g></svg>