<?xml version="1.0" encoding="UTF-8" standalone="no"?><svg xmlns="http://www.w3.org/2000/svg" xmlns:xlink="http://www.w3.org/1999/xlink" contentScriptType="application/ecmascript" contentStyleType="text/css" height="1073px" preserveAspectRatio="none" style="width:587px;height:1073px;background:#FFFFFF;" version="1.1" viewBox="0 0 587 1073" width="587px" zoomAndPan="magnify"><defs><filter height="300%" id="fhsjptu0r469y" width="300%" x="-1" y="-1"><feGaussianBlur result="blurOut" stdDeviation="2.0"/><feColorMatrix in="blurOut" result="blurOut2" type="matrix" values="0 0 0 0 0 0 0 0 0 0 0 0 0 0 0 0 0 0 .4 0"/><feOffset dx="4.0" dy="4.0" in="blurOut2" result="blurOut3"/><feBlend in="SourceGraphic" in2="blurOut3" mode="normal"/></filter></defs><g><text fill="#000000" font-family="sans-serif" font-size="18" lengthAdjust="spacing" textLength="234" x="174.5" y="30.6855">デモツール　動作シーケンス</text><rect fill="#FFFFFF" filter="url(#fhsjptu0r469y)" height="632.7813" style="stroke:#A80036;stroke-width:1.0;" width="10" x="219" y="323.7109"/><rect fill="#FFFFFF" filter="url(#fhsjptu0r469y)" height="125.7578" style="stroke:#000000;stroke-width:2.0;" width="553" x="10" y="143.25"/><rect fill="#FFFFFF" filter="url(#fhsjptu0r469y)" height="687.4844" style="stroke:#000000;stroke-width:2.0;" width="563" x="10" y="283.0078"/><rect fill="#FFFFFF" filter="url(#fhsjptu0r469y)" height="372.3203" style="stroke:#000000;stroke-width:2.0;" width="414" x="149" y="577.1719"/><rect fill="#FFFFFF" height="103.5391" style="stroke:none;stroke-width:1.0;" width="414" x="149" y="683.2266"/><rect fill="#FFFFFF" height="103.5391" style="stroke:none;stroke-width:1.0;" width="414" x="149" y="786.7656"/><rect fill="#FFFFFF" height="59.1875" style="stroke:none;stroke-width:1.0;" width="414" x="149" y="890.3047"/><line style="stroke:#A80036;stroke-width:1.0;stroke-dasharray:5.0,5.0;" x1="44" x2="44" y1="126.25" y2="987.4922"/><line style="stroke:#A80036;stroke-width:1.0;stroke-dasharray:5.0,5.0;" x1="224" x2="224" y1="126.25" y2="987.4922"/><line style="stroke:#A80036;stroke-width:1.0;stroke-dasharray:5.0,5.0;" x1="508" x2="508" y1="126.25" y2="987.4922"/><text fill="#000000" font-family="sans-serif" font-size="14" lengthAdjust="spacing" textLength="42" x="20" y="123.1738">ユーザ</text><ellipse cx="44" cy="51.6406" fill="#FEFECE" filter="url(#fhsjptu0r469y)" rx="8" ry="8" style="stroke:#A80036;stroke-width:2.0;"/><path d="M44,59.6406 L44,86.6406 M31,67.6406 L57,67.6406 M44,86.6406 L31,101.6406 M44,86.6406 L57,101.6406 " fill="none" filter="url(#fhsjptu0r469y)" style="stroke:#A80036;stroke-width:2.0;"/><text fill="#000000" font-family="sans-serif" font-size="14" lengthAdjust="spacing" textLength="42" x="20" y="1001.0254">ユーザ</text><ellipse cx="44" cy="1014.1016" fill="#FEFECE" filter="url(#fhsjptu0r469y)" rx="8" ry="8" style="stroke:#A80036;stroke-width:2.0;"/><path d="M44,1022.1016 L44,1049.1016 M31,1030.1016 L57,1030.1016 M44,1049.1016 L31,1064.1016 M44,1049.1016 L57,1064.1016 " fill="none" filter="url(#fhsjptu0r469y)" style="stroke:#A80036;stroke-width:2.0;"/><rect fill="#FEFECE" filter="url(#fhsjptu0r469y)" height="31.6094" style="stroke:#A80036;stroke-width:1.5;" width="126" x="159" y="89.6406"/><text fill="#000000" font-family="sans-serif" font-size="14" lengthAdjust="spacing" textLength="112" x="166" y="111.1738">商品管理フォーム</text><rect fill="#FEFECE" filter="url(#fhsjptu0r469y)" height="31.6094" style="stroke:#A80036;stroke-width:1.5;" width="126" x="159" y="986.4922"/><text fill="#000000" font-family="sans-serif" font-size="14" lengthAdjust="spacing" textLength="112" x="166" y="1008.0254">商品管理フォーム</text><text fill="#000000" font-family="sans-serif" font-size="14" lengthAdjust="spacing" textLength="84" x="463" y="123.1738">商品テーブル</text><ellipse cx="508" cy="92.6406" fill="#FEFECE" filter="url(#fhsjptu0r469y)" rx="12" ry="12" style="stroke:#A80036;stroke-width:2.0;"/><line style="stroke:#A80036;stroke-width:2.0;" x1="496" x2="520" y1="106.6406" y2="106.6406"/><text fill="#000000" font-family="sans-serif" font-size="14" lengthAdjust="spacing" textLength="84" x="463" y="1001.0254">商品テーブル</text><ellipse cx="508" cy="1020.1016" fill="#FEFECE" filter="url(#fhsjptu0r469y)" rx="12" ry="12" style="stroke:#A80036;stroke-width:2.0;"/><line style="stroke:#A80036;stroke-width:2.0;" x1="496" x2="520" y1="1034.1016" y2="1034.1016"/><rect fill="#FFFFFF" filter="url(#fhsjptu0r469y)" height="632.7813" style="stroke:#A80036;stroke-width:1.0;" width="10" x="219" y="323.7109"/><path d="M10,143.25 L133,143.25 L133,151.25 L123,161.25 L10,161.25 L10,143.25 " fill="#EEEEEE" style="stroke:#000000;stroke-width:1.0;"/><rect fill="none" height="125.7578" style="stroke:#000000;stroke-width:2.0;" width="553" x="10" y="143.25"/><text fill="#000000" font-family="sans-serif" font-size="13" font-weight="bold" lengthAdjust="spacing" textLength="78" x="25" y="157.7451">表示切り替え</text><polygon fill="#A80036" points="212,196.3047,222,200.3047,212,204.3047,216,200.3047" style="stroke:#A80036;stroke-width:1.0;"/><line style="stroke:#A80036;stroke-width:1.0;" x1="44" x2="218" y1="200.3047" y2="200.3047"/><text fill="#000000" font-family="sans-serif" font-size="13" lengthAdjust="spacing" textLength="156" x="51" y="179.0967">商品名選択コンボボックス</text><text fill="#000000" font-family="sans-serif" font-size="13" lengthAdjust="spacing" textLength="143" x="51" y="195.4482">表示したい商品名を選択</text><polygon fill="#A80036" points="496,226.6563,506,230.6563,496,234.6563,500,230.6563" style="stroke:#A80036;stroke-width:1.0;"/><line style="stroke:#A80036;stroke-width:1.0;" x1="224" x2="502" y1="230.6563" y2="230.6563"/><text fill="#000000" font-family="sans-serif" font-size="13" lengthAdjust="spacing" textLength="65" x="231" y="225.7998">問い合わせ</text><polygon fill="#A80036" points="235,257.0078,225,261.0078,235,265.0078,231,261.0078" style="stroke:#A80036;stroke-width:1.0;"/><line style="stroke:#A80036;stroke-width:1.0;stroke-dasharray:2.0,2.0;" x1="229" x2="507" y1="261.0078" y2="261.0078"/><text fill="#000000" font-family="sans-serif" font-size="13" lengthAdjust="spacing" textLength="260" x="241" y="256.1514">選択した項目のIDに一致するレコードデータ</text><path d="M10,283.0078 L146,283.0078 L146,291.0078 L136,301.0078 L10,301.0078 L10,283.0078 " fill="#EEEEEE" style="stroke:#000000;stroke-width:1.0;"/><rect fill="none" height="687.4844" style="stroke:#000000;stroke-width:2.0;" width="563" x="10" y="283.0078"/><text fill="#000000" font-family="sans-serif" font-size="13" font-weight="bold" lengthAdjust="spacing" textLength="91" x="25" y="297.5029">編集開始・終了</text><polygon fill="#A80036" points="207,319.7109,217,323.7109,207,327.7109,211,323.7109" style="stroke:#A80036;stroke-width:1.0;"/><line style="stroke:#A80036;stroke-width:1.0;" x1="44" x2="213" y1="323.7109" y2="323.7109"/><text fill="#000000" font-family="sans-serif" font-size="13" lengthAdjust="spacing" textLength="130" x="51" y="318.8545">編集モード開始ボタン</text><line style="stroke:#A80036;stroke-width:1.0;" x1="229" x2="271" y1="370.4141" y2="370.4141"/><line style="stroke:#A80036;stroke-width:1.0;" x1="271" x2="271" y1="370.4141" y2="383.4141"/><line style="stroke:#A80036;stroke-width:1.0;" x1="230" x2="271" y1="383.4141" y2="383.4141"/><polygon fill="#A80036" points="240,379.4141,230,383.4141,240,387.4141,236,383.4141" style="stroke:#A80036;stroke-width:1.0;"/><text fill="#000000" font-family="sans-serif" font-size="13" lengthAdjust="spacing" textLength="117" x="236" y="349.2061">各テキストボックス</text><text fill="#000000" font-family="sans-serif" font-size="13" lengthAdjust="spacing" textLength="91" x="236" y="365.5576">編集可能にする</text><polygon fill="#A80036" points="207,409.7656,217,413.7656,207,417.7656,211,413.7656" style="stroke:#A80036;stroke-width:1.0;"/><line style="stroke:#A80036;stroke-width:1.0;" x1="44" x2="213" y1="413.7656" y2="413.7656"/><text fill="#000000" font-family="sans-serif" font-size="13" lengthAdjust="spacing" textLength="52" x="51" y="408.9092">値の編集</text><polygon fill="#A80036" points="496,440.1172,506,444.1172,496,448.1172,500,444.1172" style="stroke:#A80036;stroke-width:1.0;"/><line style="stroke:#A80036;stroke-width:1.0;" x1="229" x2="502" y1="444.1172" y2="444.1172"/><text fill="#000000" font-family="sans-serif" font-size="13" lengthAdjust="spacing" textLength="65" x="236" y="439.2607">データ変更</text><polygon fill="#A80036" points="240,454.1172,230,458.1172,240,462.1172,236,458.1172" style="stroke:#A80036;stroke-width:1.0;"/><line style="stroke:#A80036;stroke-width:1.0;stroke-dasharray:2.0,2.0;" x1="234" x2="507" y1="458.1172" y2="458.1172"/><polygon fill="#A80036" points="55,468.1172,45,472.1172,55,476.1172,51,472.1172" style="stroke:#A80036;stroke-width:1.0;"/><line style="stroke:#A80036;stroke-width:1.0;stroke-dasharray:2.0,2.0;" x1="49" x2="218" y1="472.1172" y2="472.1172"/><polygon fill="#A80036" points="207,498.4688,217,502.4688,207,506.4688,211,502.4688" style="stroke:#A80036;stroke-width:1.0;"/><line style="stroke:#A80036;stroke-width:1.0;" x1="44" x2="213" y1="502.4688" y2="502.4688"/><text fill="#000000" font-family="sans-serif" font-size="13" lengthAdjust="spacing" textLength="91" x="51" y="497.6123">編集完了ボタン</text><line style="stroke:#A80036;stroke-width:1.0;" x1="229" x2="271" y1="549.1719" y2="549.1719"/><line style="stroke:#A80036;stroke-width:1.0;" x1="271" x2="271" y1="549.1719" y2="562.1719"/><line style="stroke:#A80036;stroke-width:1.0;" x1="230" x2="271" y1="562.1719" y2="562.1719"/><polygon fill="#A80036" points="240,558.1719,230,562.1719,240,566.1719,236,562.1719" style="stroke:#A80036;stroke-width:1.0;"/><text fill="#000000" font-family="sans-serif" font-size="13" lengthAdjust="spacing" textLength="117" x="236" y="527.9639">各テキストボックス</text><text fill="#000000" font-family="sans-serif" font-size="13" lengthAdjust="spacing" textLength="91" x="236" y="544.3154">編集不可にする</text><path d="M149,577.1719 L380,577.1719 L380,585.1719 L370,595.1719 L149,595.1719 L149,577.1719 " fill="#EEEEEE" style="stroke:#000000;stroke-width:1.0;"/><rect fill="none" height="372.3203" style="stroke:#000000;stroke-width:2.0;" width="414" x="149" y="577.1719"/><text fill="#000000" font-family="sans-serif" font-size="13" font-weight="bold" lengthAdjust="spacing" textLength="182" x="164" y="591.667">ラジオボタンの選択で条件分岐</text><text fill="#000000" font-family="sans-serif" font-size="11" font-weight="bold" lengthAdjust="spacing" textLength="162" x="395" y="590.5908">[フォームに対してRequery実行]</text><line style="stroke:#A80036;stroke-width:1.0;" x1="229" x2="271" y1="617.875" y2="617.875"/><line style="stroke:#A80036;stroke-width:1.0;" x1="271" x2="271" y1="617.875" y2="630.875"/><line style="stroke:#A80036;stroke-width:1.0;" x1="230" x2="271" y1="630.875" y2="630.875"/><polygon fill="#A80036" points="240,626.875,230,630.875,240,634.875,236,630.875" style="stroke:#A80036;stroke-width:1.0;"/><text fill="#000000" font-family="sans-serif" font-size="13" lengthAdjust="spacing" textLength="160" x="236" y="613.0186">Form.Requeryメソッド実行</text><polygon fill="#A80036" points="496,657.2266,506,661.2266,496,665.2266,500,661.2266" style="stroke:#A80036;stroke-width:1.0;"/><line style="stroke:#A80036;stroke-width:1.0;" x1="229" x2="502" y1="661.2266" y2="661.2266"/><text fill="#000000" font-family="sans-serif" font-size="13" lengthAdjust="spacing" textLength="117" x="236" y="656.3701">画面上のデータ更新</text><polygon fill="#A80036" points="240,671.2266,230,675.2266,240,679.2266,236,675.2266" style="stroke:#A80036;stroke-width:1.0;"/><line style="stroke:#A80036;stroke-width:1.0;stroke-dasharray:2.0,2.0;" x1="234" x2="507" y1="675.2266" y2="675.2266"/><line style="stroke:#000000;stroke-width:1.0;stroke-dasharray:2.0,2.0;" x1="149" x2="563" y1="684.2266" y2="684.2266"/><text fill="#000000" font-family="sans-serif" font-size="11" font-weight="bold" lengthAdjust="spacing" textLength="159" x="154" y="695.6455">[フォームに対してRefresh実行]</text><line style="stroke:#A80036;stroke-width:1.0;" x1="229" x2="271" y1="721.4141" y2="721.4141"/><line style="stroke:#A80036;stroke-width:1.0;" x1="271" x2="271" y1="721.4141" y2="734.4141"/><line style="stroke:#A80036;stroke-width:1.0;" x1="230" x2="271" y1="734.4141" y2="734.4141"/><polygon fill="#A80036" points="240,730.4141,230,734.4141,240,738.4141,236,734.4141" style="stroke:#A80036;stroke-width:1.0;"/><text fill="#000000" font-family="sans-serif" font-size="13" lengthAdjust="spacing" textLength="157" x="236" y="716.5576">Form.Refreshメソッド実行</text><polygon fill="#A80036" points="496,760.7656,506,764.7656,496,768.7656,500,764.7656" style="stroke:#A80036;stroke-width:1.0;"/><line style="stroke:#A80036;stroke-width:1.0;" x1="229" x2="502" y1="764.7656" y2="764.7656"/><text fill="#000000" font-family="sans-serif" font-size="13" lengthAdjust="spacing" textLength="117" x="236" y="759.9092">画面上のデータ更新</text><polygon fill="#A80036" points="240,774.7656,230,778.7656,240,782.7656,236,778.7656" style="stroke:#A80036;stroke-width:1.0;"/><line style="stroke:#A80036;stroke-width:1.0;stroke-dasharray:2.0,2.0;" x1="234" x2="507" y1="778.7656" y2="778.7656"/><line style="stroke:#000000;stroke-width:1.0;stroke-dasharray:2.0,2.0;" x1="149" x2="563" y1="787.7656" y2="787.7656"/><text fill="#000000" font-family="sans-serif" font-size="11" font-weight="bold" lengthAdjust="spacing" textLength="250" x="154" y="799.1846">[商品名選択コンボボックスに対してRequery実行]</text><line style="stroke:#A80036;stroke-width:1.0;" x1="229" x2="271" y1="824.9531" y2="824.9531"/><line style="stroke:#A80036;stroke-width:1.0;" x1="271" x2="271" y1="824.9531" y2="837.9531"/><line style="stroke:#A80036;stroke-width:1.0;" x1="230" x2="271" y1="837.9531" y2="837.9531"/><polygon fill="#A80036" points="240,833.9531,230,837.9531,240,841.9531,236,837.9531" style="stroke:#A80036;stroke-width:1.0;"/><text fill="#000000" font-family="sans-serif" font-size="13" lengthAdjust="spacing" textLength="194" x="236" y="820.0967">ComboBox.Requeryメソッド実行</text><polygon fill="#A80036" points="496,864.3047,506,868.3047,496,872.3047,500,868.3047" style="stroke:#A80036;stroke-width:1.0;"/><line style="stroke:#A80036;stroke-width:1.0;" x1="229" x2="502" y1="868.3047" y2="868.3047"/><text fill="#000000" font-family="sans-serif" font-size="13" lengthAdjust="spacing" textLength="195" x="236" y="863.4482">コンボボックスのデータのみ更新</text><polygon fill="#A80036" points="240,878.3047,230,882.3047,240,886.3047,236,882.3047" style="stroke:#A80036;stroke-width:1.0;"/><line style="stroke:#A80036;stroke-width:1.0;stroke-dasharray:2.0,2.0;" x1="234" x2="507" y1="882.3047" y2="882.3047"/><line style="stroke:#000000;stroke-width:1.0;stroke-dasharray:2.0,2.0;" x1="149" x2="563" y1="891.3047" y2="891.3047"/><text fill="#000000" font-family="sans-serif" font-size="11" font-weight="bold" lengthAdjust="spacing" textLength="63" x="154" y="902.7236">[何もしない]</text><line style="stroke:#A80036;stroke-width:1.0;" x1="229" x2="271" y1="928.4922" y2="928.4922"/><line style="stroke:#A80036;stroke-width:1.0;" x1="271" x2="271" y1="928.4922" y2="941.4922"/><line style="stroke:#A80036;stroke-width:1.0;" x1="230" x2="271" y1="941.4922" y2="941.4922"/><polygon fill="#A80036" points="240,937.4922,230,941.4922,240,945.4922,236,941.4922" style="stroke:#A80036;stroke-width:1.0;"/><text fill="#000000" font-family="sans-serif" font-size="13" lengthAdjust="spacing" textLength="65" x="236" y="923.6357">何もしない</text><polygon fill="#A80036" points="55,958.4922,45,962.4922,55,966.4922,51,962.4922" style="stroke:#A80036;stroke-width:1.0;"/><line style="stroke:#A80036;stroke-width:1.0;stroke-dasharray:2.0,2.0;" x1="49" x2="223" y1="962.4922" y2="962.4922"/><!--MD5=[098052148844d9a91441a5cb202d01bc]
@startuml "demo-tool-sequence"
title "デモツール　動作シーケンス"

actor "ユーザ" as u
participant "商品管理フォーム" as fm
entity "商品テーブル" as t

group 表示切り替え
    u->fm: 商品名選択コンボボックス\n表示したい商品名を選択
    fm-> t: 問い合わせ
    t- -> fm: 選択した項目のIDに一致するレコードデータ
end

group 編集開始・終了
    u->fm: 編集モード開始ボタン
    activate  fm
    fm->fm: 各テキストボックス\n編集可能にする
    u->fm: 値の編集
    fm-> t: データ変更
    t- ->fm
    fm- ->u

    u->fm: 編集完了ボタン
    fm->fm: 各テキストボックス\n編集不可にする
    group ラジオボタンの選択で条件分岐 [フォームに対してRequery実行]
        
        fm->fm: Form.Requeryメソッド実行
        fm-> t: 画面上のデータ更新
        t- ->fm

        else フォームに対してRefresh実行
        fm->fm: Form.Refreshメソッド実行
        fm-> t: 画面上のデータ更新
        t- ->fm
        else 商品名選択コンボボックスに対してRequery実行
        fm->fm: ComboBox.Requeryメソッド実行
        fm-> t: コンボボックスのデータのみ更新
        t- ->fm
        else 何もしない
        fm->fm: 何もしない

    end

    deactivate fm
    fm- ->u

end
@enduml

PlantUML version 1.2021.7(Sun May 23 21:40:07 JST 2021)
(GPL source distribution)
Java Runtime: Java(TM) SE Runtime Environment
JVM: Java HotSpot(TM) 64-Bit Server VM
Default Encoding: MS932
Language: ja
Country: JP
--></g></svg>