<?xml version="1.0" encoding="UTF-8" standalone="no"?><svg xmlns="http://www.w3.org/2000/svg" xmlns:xlink="http://www.w3.org/1999/xlink" contentScriptType="application/ecmascript" contentStyleType="text/css" height="939px" preserveAspectRatio="none" style="width:1218px;height:939px;" version="1.1" viewBox="0 0 1218 939" width="1218px" zoomAndPan="magnify"><defs><filter height="300%" id="fo4aahovigofr" width="300%" x="-1" y="-1"><feGaussianBlur result="blurOut" stdDeviation="2.0"/><feColorMatrix in="blurOut" result="blurOut2" type="matrix" values="0 0 0 0 0 0 0 0 0 0 0 0 0 0 0 0 0 0 .4 0"/><feOffset dx="4.0" dy="4.0" in="blurOut2" result="blurOut3"/><feBlend in="SourceGraphic" in2="blurOut3" mode="normal"/></filter></defs><g><text fill="#000000" font-family="sans-serif" font-size="18" lengthAdjust="spacing" textLength="112" x="546.5" y="18.6855">画面遷移図(2)</text><ellipse cx="606.5" cy="917.6406" fill="none" filter="url(#fo4aahovigofr)" rx="10" ry="10" style="stroke:#000000;stroke-width:1.0;"/><ellipse cx="607" cy="918.1406" fill="#000000" rx="6" ry="6" style="stroke:none;stroke-width:1.0;"/><rect fill="#FFFF77" filter="url(#fo4aahovigofr)" height="800.4063" rx="12.5" ry="12.5" style="stroke:#A80036;stroke-width:1.5;" width="1199" x="7" y="29.6406"/><rect fill="#FFFFFF" height="766.7969" rx="12.5" ry="12.5" style="stroke:#FFFFFF;stroke-width:1.0;" width="1193" x="10" y="60.25"/><line style="stroke:#A80036;stroke-width:1.5;" x1="7" x2="1206" y1="57.25" y2="57.25"/><text fill="#000000" font-family="sans-serif" font-size="14" lengthAdjust="spacing" textLength="112" x="550.5" y="49.1738">見積書作成処理系</text><ellipse cx="473" cy="78.25" fill="#000000" filter="url(#fo4aahovigofr)" rx="10" ry="10" style="stroke:none;stroke-width:1.0;"/><g id="見積書作成処理系.見積書項目設定画面"><rect fill="#FEFECE" filter="url(#fo4aahovigofr)" height="82.8906" rx="12.5" ry="12.5" style="stroke:#A80036;stroke-width:1.5;" width="241" x="352.5" y="125.25"/><line style="stroke:#A80036;stroke-width:1.5;" x1="352.5" x2="593.5" y1="152.8594" y2="152.8594"/><text fill="#000000" font-family="sans-serif" font-size="14" lengthAdjust="spacing" textLength="126" x="410" y="144.7832">見積書項目設定画面</text><text fill="#000000" font-family="sans-serif" font-size="12" lengthAdjust="spacing" textLength="78" x="357.5" y="170.3164">entry/初期表示</text><text fill="#000000" font-family="sans-serif" font-size="12" lengthAdjust="spacing" textLength="221" x="357.5" y="185.4102">do/見積書テンプレートのプレビュー表示</text><text fill="#000000" font-family="sans-serif" font-size="12" lengthAdjust="spacing" textLength="106" x="357.5" y="200.5039">exit/メニューに戻る</text></g><g id="見積書作成処理系.会社名選択画面"><rect fill="#FEFECE" filter="url(#fo4aahovigofr)" height="67.7969" rx="12.5" ry="12.5" style="stroke:#A80036;stroke-width:1.5;" width="170" x="19" y="285.75"/><line style="stroke:#A80036;stroke-width:1.5;" x1="19" x2="189" y1="313.3594" y2="313.3594"/><text fill="#000000" font-family="sans-serif" font-size="14" lengthAdjust="spacing" textLength="98" x="55" y="305.2832">会社名選択画面</text><text fill="#000000" font-family="sans-serif" font-size="12" lengthAdjust="spacing" textLength="150" x="24" y="330.8164">entry/会社名データ一覧表示</text><text fill="#000000" font-family="sans-serif" font-size="12" lengthAdjust="spacing" textLength="142" x="24" y="345.9102">exit/見積書項目設定に戻る</text></g><g id="見積書作成処理系.担当者選択画面"><rect fill="#FEFECE" filter="url(#fo4aahovigofr)" height="67.7969" rx="12.5" ry="12.5" style="stroke:#A80036;stroke-width:1.5;" width="162" x="275" y="285.75"/><line style="stroke:#A80036;stroke-width:1.5;" x1="275" x2="437" y1="313.3594" y2="313.3594"/><text fill="#000000" font-family="sans-serif" font-size="14" lengthAdjust="spacing" textLength="98" x="307" y="305.2832">担当者選択画面</text><text fill="#000000" font-family="sans-serif" font-size="12" lengthAdjust="spacing" textLength="138" x="280" y="330.8164">entry/人名データ一覧表示</text><text fill="#000000" font-family="sans-serif" font-size="12" lengthAdjust="spacing" textLength="142" x="280" y="345.9102">exit/見積書項目設定に戻る</text></g><g id="見積書作成処理系.見積書項目データ利用画面"><rect fill="#FEFECE" filter="url(#fo4aahovigofr)" height="82.8906" rx="12.5" ry="12.5" style="stroke:#A80036;stroke-width:1.5;" width="242" x="554" y="278.25"/><line style="stroke:#A80036;stroke-width:1.5;" x1="554" x2="796" y1="305.8594" y2="305.8594"/><text fill="#000000" font-family="sans-serif" font-size="14" lengthAdjust="spacing" textLength="168" x="591" y="297.7832">見積書項目データ利用画面</text><text fill="#000000" font-family="sans-serif" font-size="12" lengthAdjust="spacing" textLength="222" x="559" y="323.3164">entry/過去作成分の見積書項目データ取得</text><text fill="#000000" font-family="sans-serif" font-size="12" lengthAdjust="spacing" textLength="125" x="559" y="338.4102">do/反映項目の絞り込み</text><text fill="#000000" font-family="sans-serif" font-size="12" lengthAdjust="spacing" textLength="142" x="559" y="353.5039">exit/見積書項目設定に戻る</text></g><g id="見積書作成処理系.見積書_項目リスト作成画面"><rect fill="#FEFECE" filter="url(#fo4aahovigofr)" height="82.8906" rx="12.5" ry="12.5" style="stroke:#A80036;stroke-width:1.5;" width="242" x="778" y="453.25"/><line style="stroke:#A80036;stroke-width:1.5;" x1="778" x2="1020" y1="480.8594" y2="480.8594"/><text fill="#000000" font-family="sans-serif" font-size="14" lengthAdjust="spacing" textLength="176" x="811" y="472.7832">見積書_項目リスト作成画面</text><text fill="#000000" font-family="sans-serif" font-size="12" lengthAdjust="spacing" textLength="222" x="783" y="498.3164">entry/見積書商品・サービスのリスト表示</text><text fill="#000000" font-family="sans-serif" font-size="12" lengthAdjust="spacing" textLength="125" x="783" y="513.4102">do/見積書作成処理実行</text><text fill="#000000" font-family="sans-serif" font-size="12" lengthAdjust="spacing" textLength="106" x="783" y="528.5039">exit/メニューに戻る</text></g><g id="見積書作成処理系.見積書_項目リストレコード追加画面"><rect fill="#FEFECE" filter="url(#fo4aahovigofr)" height="67.7969" rx="12.5" ry="12.5" style="stroke:#A80036;stroke-width:1.5;" width="252" x="629" y="606.25"/><line style="stroke:#A80036;stroke-width:1.5;" x1="629" x2="881" y1="633.8594" y2="633.8594"/><text fill="#000000" font-family="sans-serif" font-size="14" lengthAdjust="spacing" textLength="232" x="639" y="625.7832">見積書_項目リストレコード追加画面</text><text fill="#000000" font-family="sans-serif" font-size="12" lengthAdjust="spacing" textLength="78" x="634" y="651.3164">entry/初期表示</text><text fill="#000000" font-family="sans-serif" font-size="12" lengthAdjust="spacing" textLength="118" x="634" y="666.4102">exit/リスト作成に戻る</text></g><g id="見積書作成処理系.商品詳細表示画面"><rect fill="#FEFECE" filter="url(#fo4aahovigofr)" height="67.7969" rx="12.5" ry="12.5" style="stroke:#A80036;stroke-width:1.5;" width="158" x="676" y="744.25"/><line style="stroke:#A80036;stroke-width:1.5;" x1="676" x2="834" y1="771.8594" y2="771.8594"/><text fill="#000000" font-family="sans-serif" font-size="14" lengthAdjust="spacing" textLength="112" x="699" y="763.7832">商品詳細表示画面</text><text fill="#000000" font-family="sans-serif" font-size="12" lengthAdjust="spacing" textLength="138" x="681" y="789.3164">entry/選択商品の情報取得</text><text fill="#000000" font-family="sans-serif" font-size="12" lengthAdjust="spacing" textLength="130" x="681" y="804.4102">exit/レコード追加に戻る</text></g><g id="見積書作成処理系.見積書_項目リストレコード削除画面"><rect fill="#FEFECE" filter="url(#fo4aahovigofr)" height="67.7969" rx="12.5" ry="12.5" style="stroke:#A80036;stroke-width:1.5;" width="252" x="916" y="606.25"/><line style="stroke:#A80036;stroke-width:1.5;" x1="916" x2="1168" y1="633.8594" y2="633.8594"/><text fill="#000000" font-family="sans-serif" font-size="14" lengthAdjust="spacing" textLength="232" x="926" y="625.7832">見積書_項目リストレコード削除画面</text><text fill="#000000" font-family="sans-serif" font-size="12" lengthAdjust="spacing" textLength="186" x="921" y="651.3164">entry/作成済みのレコード番号取得</text><text fill="#000000" font-family="sans-serif" font-size="12" lengthAdjust="spacing" textLength="118" x="921" y="666.4102">exit/リスト作成に戻る</text></g><!--MD5=[73019fc56d170b9e53bb6a4cdf4fe44a]
link *start*見積書作成処理系 to 見積書項目設定画面--><path d="M473,88.51 C473,96.29 473,108.03 473,120.03 " fill="none" id="*start*見積書作成処理系-to-見積書項目設定画面" style="stroke:#0000FF;stroke-width:2.0;"/><polygon fill="#0000FF" points="473,125.18,477,116.18,473,120.18,469,116.18,473,125.18" style="stroke:#0000FF;stroke-width:2.0;"/><!--MD5=[8a17dfaab22f722c96c7a2b6ebd98673]
link 見積書項目設定画面 to 会社名選択画面--><path d="M352.06,169.51 C252.22,173.84 121.66,187.09 88,226.25 C75.28,241.05 77.96,262.24 84.42,280.61 " fill="none" id="見積書項目設定画面-to-会社名選択画面" style="stroke:#A80036;stroke-width:1.0;"/><polygon fill="#A80036" points="86.33,285.71,86.9152,275.8785,84.5744,281.0284,79.4246,278.6875,86.33,285.71" style="stroke:#A80036;stroke-width:1.0;"/><text fill="#000000" font-family="sans-serif" font-size="13" lengthAdjust="spacing" textLength="91" x="89" y="248.7451">検索ボタン押下</text><!--MD5=[8910a749aa31e682016c1a31ff5f654c]
link 会社名選択画面 to 見積書項目設定画面--><path d="M148.94,285.73 C159.6,277.59 170.83,268.76 181,260.25 C198.13,245.92 198.24,236.65 218,226.25 C257.67,205.38 304.66,191.9 347.42,183.23 " fill="none" id="会社名選択画面-to-見積書項目設定画面" style="stroke:#A80036;stroke-width:1.0;"/><polygon fill="#A80036" points="352.34,182.24,342.734,180.0666,347.4355,183.2123,344.2897,187.9138,352.34,182.24" style="stroke:#A80036;stroke-width:1.0;"/><text fill="#000000" font-family="sans-serif" font-size="13" lengthAdjust="spacing" textLength="78" x="219" y="240.7451">レコード選択</text><text fill="#000000" font-family="sans-serif" font-size="13" lengthAdjust="spacing" textLength="45" x="235.5" y="257.0967">OK押下</text><!--MD5=[9083b6966a5fcdaff3dc6fc869a4d6ff]
link 見積書項目設定画面 to 担当者選択画面--><path d="M352.42,189.98 C334.57,198.47 318.39,210.16 307,226.25 C294.9,243.34 303.62,263.79 316.87,281.11 " fill="none" id="見積書項目設定画面-to-担当者選択画面" style="stroke:#A80036;stroke-width:1.0;"/><polygon fill="#A80036" points="320.33,285.44,317.8567,275.9067,317.217,281.5273,311.5964,280.8876,320.33,285.44" style="stroke:#A80036;stroke-width:1.0;"/><text fill="#000000" font-family="sans-serif" font-size="13" lengthAdjust="spacing" textLength="91" x="308" y="248.7451">検索ボタン押下</text><!--MD5=[245a9f2347172ab66b9172d2b26ee8d9]
link 担当者選択画面 to 見積書項目設定画面--><path d="M381.42,285.55 C387.58,277.34 394.09,268.53 400,260.25 C410.6,245.4 411.94,240.76 423,226.25 C426.48,221.68 430.2,217 433.98,212.37 " fill="none" id="担当者選択画面-to-見積書項目設定画面" style="stroke:#A80036;stroke-width:1.0;"/><polygon fill="#A80036" points="437.17,208.5,428.3643,212.9114,433.9945,212.3621,434.5438,217.9923,437.17,208.5" style="stroke:#A80036;stroke-width:1.0;"/><text fill="#000000" font-family="sans-serif" font-size="13" lengthAdjust="spacing" textLength="78" x="424" y="240.7451">レコード選択</text><text fill="#000000" font-family="sans-serif" font-size="13" lengthAdjust="spacing" textLength="45" x="440.5" y="257.0967">OK押下</text><!--MD5=[53eb608039fa4d5c400d416f0bb6658f]
link 見積書項目設定画面 to 見積書項目データ利用画面--><path d="M494.72,208.51 C507.22,231.42 521.34,256.23 526,260.25 C533.1,266.38 540.92,271.91 549.14,276.89 " fill="none" id="見積書項目設定画面-to-見積書項目データ利用画面" style="stroke:#A80036;stroke-width:1.0;"/><polygon fill="#A80036" points="553.75,279.61,548.0079,271.6082,549.4363,277.0818,543.9627,278.5101,553.75,279.61" style="stroke:#A80036;stroke-width:1.0;"/><text fill="#000000" font-family="sans-serif" font-size="13" lengthAdjust="spacing" textLength="229" x="527" y="248.7451">[作成済み見積書データ利用]ボタン押下</text><!--MD5=[a09406b1fdbd1be2763030ff60adaa50]
link 見積書項目データ利用画面 to 見積書項目設定画面--><path d="M742.05,278.17 C760.11,262.24 771.17,243.63 757,226.25 C736.54,201.15 664.93,186.5 598.73,178.14 " fill="none" id="見積書項目データ利用画面-to-見積書項目設定画面" style="stroke:#A80036;stroke-width:1.0;"/><polygon fill="#A80036" points="593.57,177.5,602.0098,182.5764,598.532,178.1149,602.9936,174.6372,593.57,177.5" style="stroke:#A80036;stroke-width:1.0;"/><text fill="#000000" font-family="sans-serif" font-size="13" lengthAdjust="spacing" textLength="78" x="765" y="240.7451">レコード選択</text><text fill="#000000" font-family="sans-serif" font-size="13" lengthAdjust="spacing" textLength="45" x="781.5" y="257.0967">OK押下</text><!--MD5=[762f3d6fbbd6fa2e779c288b81f3d302]
link 見積書項目設定画面 to 見積書_項目リスト作成画面--><path d="M593.69,171.52 C689.47,177.16 812.91,191.22 848,226.25 C902.46,280.61 859.7,321.84 875,397.25 C878.39,413.96 882.74,432.15 886.8,448.18 " fill="none" id="見積書項目設定画面-to-見積書_項目リスト作成画面" style="stroke:#0000FF;stroke-width:2.0;"/><polygon fill="#0000FF" points="888.05,453.08,889.6872,443.3682,886.8071,448.2369,881.9383,445.3568,888.05,453.08" style="stroke:#0000FF;stroke-width:2.0;"/><text fill="#000000" font-family="sans-serif" font-size="13" lengthAdjust="spacing" textLength="26" x="876" y="393.7451">次へ</text><!--MD5=[f7c7481c7fb2e4081aea811207dd1399]
link 見積書_項目リスト作成画面 to 見積書項目設定画面--><path d="M910.07,452.76 C923.48,392.82 937.12,282.32 874,226.25 C834.17,190.87 701.13,176.88 599.1,171.35 " fill="none" id="見積書_項目リスト作成画面-to-見積書項目設定画面" style="stroke:#0000FF;stroke-width:2.0;"/><polygon fill="#0000FF" points="593.96,171.08,602.7299,175.562,598.9526,171.351,603.1636,167.5737,593.96,171.08" style="stroke:#0000FF;stroke-width:2.0;"/><text fill="#000000" font-family="sans-serif" font-size="13" lengthAdjust="spacing" textLength="26" x="921" y="393.7451">戻る</text><!--MD5=[6688e442856f2df6269dfea7f5720df4]
link 見積書_項目リスト作成画面 to 見積書_項目リストレコード追加画面--><path d="M777.97,510.3 C724.17,519.5 669.29,533.63 653,554.25 C643.63,566.11 645.06,575.4 653,588.25 C656.25,593.51 660.23,598.25 664.71,602.51 " fill="none" id="見積書_項目リスト作成画面-to-見積書_項目リストレコード追加画面" style="stroke:#A80036;stroke-width:1.0;"/><polygon fill="#A80036" points="668.58,605.98,664.5491,596.9938,664.8572,602.6423,659.2087,602.9504,668.58,605.98" style="stroke:#A80036;stroke-width:1.0;"/><text fill="#000000" font-family="sans-serif" font-size="13" lengthAdjust="spacing" textLength="164" x="654" y="576.7451">[レコードの追加]ボタン押下</text><!--MD5=[b0c99abaaab0b1b976de327f72e8320e]
link 見積書_項目リストレコード追加画面 to 見積書_項目リスト作成画面--><path d="M800.82,605.98 C807.26,600.4 813.53,594.41 819,588.25 C830.79,574.96 828.95,568.16 840,554.25 C843.72,549.57 847.77,544.88 851.96,540.3 " fill="none" id="見積書_項目リストレコード追加画面-to-見積書_項目リスト作成画面" style="stroke:#A80036;stroke-width:1.0;"/><polygon fill="#A80036" points="855.51,536.48,846.4524,540.3479,852.1056,540.1419,852.3115,545.795,855.51,536.48" style="stroke:#A80036;stroke-width:1.0;"/><text fill="#000000" font-family="sans-serif" font-size="13" lengthAdjust="spacing" textLength="65" x="854" y="568.7451">データ記入</text><text fill="#000000" font-family="sans-serif" font-size="13" lengthAdjust="spacing" textLength="91" x="841" y="585.0967">追加ボタン押下</text><!--MD5=[41cde20f3a2bb01222de40bafc5988ed]
link 見積書_項目リストレコード追加画面 to 商品詳細表示画面--><path d="M694.73,674.41 C689.26,679.68 684.48,685.62 681,692.25 C673.97,705.63 673.97,712.87 681,726.25 C683.67,731.33 687.09,736 691,740.27 " fill="none" id="見積書_項目リストレコード追加画面-to-商品詳細表示画面" style="stroke:#A80036;stroke-width:1.0;"/><polygon fill="#A80036" points="694.73,744.09,691.3248,734.8485,691.2448,740.5048,685.5885,740.4248,694.73,744.09" style="stroke:#A80036;stroke-width:1.0;"/><text fill="#000000" font-family="sans-serif" font-size="13" lengthAdjust="spacing" textLength="65" x="712" y="706.7451">商品を選択</text><text fill="#000000" font-family="sans-serif" font-size="13" lengthAdjust="spacing" textLength="125" x="682" y="723.0967">[詳細表示]ボタン押下</text><!--MD5=[ad6924f327d0f9c7465653aa7df76e75]
link 商品詳細表示画面 to 見積書_項目リストレコード追加画面--><path d="M796.88,743.95 C801.38,738.53 805.3,732.6 808,726.25 C813.92,712.35 813.92,706.15 808,692.25 C805.98,687.49 803.26,682.96 800.14,678.71 " fill="none" id="商品詳細表示画面-to-見積書_項目リストレコード追加画面" style="stroke:#A80036;stroke-width:1.0;"/><polygon fill="#A80036" points="796.88,674.55,799.2552,684.1081,799.9527,678.4945,805.5664,679.1919,796.88,674.55" style="stroke:#A80036;stroke-width:1.0;"/><text fill="#000000" font-family="sans-serif" font-size="13" lengthAdjust="spacing" textLength="45" x="814" y="714.7451">OK押下</text><!--MD5=[75c6ed5e4ab54f079ca6250e52ad24da]
link 見積書_項目リスト作成画面 to 見積書_項目リストレコード削除画面--><path d="M924.38,536.44 C939.3,560.21 955.69,585.99 958,588.25 C963.35,593.48 969.34,598.42 975.58,603.01 " fill="none" id="見積書_項目リスト作成画面-to-見積書_項目リストレコード削除画面" style="stroke:#A80036;stroke-width:1.0;"/><polygon fill="#A80036" points="979.94,606.13,974.9498,597.639,975.8742,603.2198,970.2934,604.1442,979.94,606.13" style="stroke:#A80036;stroke-width:1.0;"/><text fill="#000000" font-family="sans-serif" font-size="13" lengthAdjust="spacing" textLength="151" x="959" y="576.7451">[レコード削除]ボタン押下</text><!--MD5=[7fab710ad991074e0972c70b33256402]
link 見積書_項目リストレコード削除画面 to 見積書_項目リスト作成画面--><path d="M1097.62,606.24 C1102.97,600.9 1107.65,594.9 1111,588.25 C1117.81,574.76 1120.15,566.27 1111,554.25 C1099.32,538.91 1063.88,526.58 1025.23,517.26 " fill="none" id="見積書_項目リストレコード削除画面-to-見積書_項目リスト作成画面" style="stroke:#A80036;stroke-width:1.0;"/><polygon fill="#A80036" points="1020.01,516.02,1027.838,521.9968,1024.8739,517.1787,1029.692,514.2146,1020.01,516.02" style="stroke:#A80036;stroke-width:1.0;"/><text fill="#000000" font-family="sans-serif" font-size="13" lengthAdjust="spacing" textLength="78" x="1118" y="568.7451">レコード選択</text><text fill="#000000" font-family="sans-serif" font-size="13" lengthAdjust="spacing" textLength="52" x="1131" y="585.0967">削除押下</text><!--MD5=[1d4e7880e8fcc692257fd25c9af90114]
link 見積書作成処理系 to *end--><path d="M606.5,829.7506 C606.5,861.6906 606.5,887.4006 606.5,902.3406 " fill="none" id="見積書作成処理系-to-*end" style="stroke:#0000FF;stroke-width:2.0;"/><polygon fill="#0000FF" points="606.5,907.3506,610.5,898.3506,606.5,902.3506,602.5,898.3506,606.5,907.3506" style="stroke:#0000FF;stroke-width:2.0;"/><text fill="#000000" font-family="sans-serif" font-size="13" lengthAdjust="spacing" textLength="225" x="607.5" y="874.1357">作成してメニュー/作成せずにメニュー</text><!--MD5=[c69b6ee8e3336cfea2dfe30e5f53a788]
@startuml

title 画面遷移図(2)

state 見積書作成処理系 #FFFF77{
    [*] -[#blue,bold]-> 見積書項目設定画面
    見積書項目設定画面:entry/初期表示
    見積書項目設定画面:do/見積書テンプレートのプレビュー表示
    見積書項目設定画面:exit/メニューに戻る
    見積書項目設定画面 - -> 会社名選択画面: 検索ボタン押下
    会社名選択画面:entry/会社名データ一覧表示
    会社名選択画面:exit/見積書項目設定に戻る
    会社名選択画面 - -> 見積書項目設定画面: レコード選択\nOK押下
    見積書項目設定画面 - -> 担当者選択画面: 検索ボタン押下
    担当者選択画面:entry/人名データ一覧表示
    担当者選択画面:exit/見積書項目設定に戻る
    担当者選択画面 - -> 見積書項目設定画面: レコード選択\nOK押下
    見積書項目設定画面 - -> 見積書項目データ利用画面: [作成済み見積書データ利用]ボタン押下
    見積書項目データ利用画面:entry/過去作成分の見積書項目データ取得
    見積書項目データ利用画面:do/反映項目の絞り込み
    見積書項目データ利用画面:exit/見積書項目設定に戻る
    見積書項目データ利用画面 - -> 見積書項目設定画面: レコード選択\nOK押下
    見積書項目設定画面 - - -[#blue,bold]-> 見積書_項目リスト作成画面: 次へ
    見積書_項目リスト作成画面:entry/見積書商品・サービスのリスト表示
    見積書_項目リスト作成画面:do/見積書作成処理実行
    見積書_項目リスト作成画面:exit/メニューに戻る
    見積書_項目リスト作成画面 -[#blue,bold]-> 見積書項目設定画面: 戻る
    見積書_項目リスト作成画面 - -> 見積書_項目リストレコード追加画面: [レコードの追加]ボタン押下
    見積書_項目リストレコード追加画面:entry/初期表示
    見積書_項目リストレコード追加画面:exit/リスト作成に戻る
    見積書_項目リストレコード追加画面 - -> 見積書_項目リスト作成画面: データ記入\n追加ボタン押下
    見積書_項目リストレコード追加画面 - -> 商品詳細表示画面: 商品を選択\n[詳細表示]ボタン押下
    商品詳細表示画面:entry/選択商品の情報取得
    商品詳細表示画面:exit/レコード追加に戻る
    商品詳細表示画面 - -> 見積書_項目リストレコード追加画面: OK押下
    見積書_項目リスト作成画面 - -> 見積書_項目リストレコード削除画面: [レコード削除]ボタン押下
    見積書_項目リストレコード削除画面:entry/作成済みのレコード番号取得
    見積書_項目リストレコード削除画面:exit/リスト作成に戻る
    見積書_項目リストレコード削除画面 - -> 見積書_項目リスト作成画面: レコード選択\n削除押下
}

見積書作成処理系 -[#blue,bold]-> [*]: 作成してメニュー/作成せずにメニュー


@enduml

PlantUML version 1.2021.00(Sun Jan 10 19:25:05 JST 2021)
(GPL source distribution)
Java Runtime: Java(TM) SE Runtime Environment
JVM: Java HotSpot(TM) 64-Bit Server VM
Default Encoding: MS932
Language: ja
Country: JP
--></g></svg>