<?xml version="1.0" encoding="UTF-8" standalone="no"?><svg xmlns="http://www.w3.org/2000/svg" xmlns:xlink="http://www.w3.org/1999/xlink" contentScriptType="application/ecmascript" contentStyleType="text/css" height="645px" preserveAspectRatio="none" style="width:359px;height:645px;background:#FFFFFF;" version="1.1" viewBox="0 0 359 645" width="359px" zoomAndPan="magnify"><defs><filter height="300%" id="ffmksktoruym8" width="300%" x="-1" y="-1"><feGaussianBlur result="blurOut" stdDeviation="2.0"/><feColorMatrix in="blurOut" result="blurOut2" type="matrix" values="0 0 0 0 0 0 0 0 0 0 0 0 0 0 0 0 0 0 .4 0"/><feOffset dx="4.0" dy="4.0" in="blurOut2" result="blurOut3"/><feBlend in="SourceGraphic" in2="blurOut3" mode="normal"/></filter></defs><g><!--MD5=[335f4d9be48430461c68bf6d6fdba145]
class App--><rect codeLine="2" fill="#FEFECE" filter="url(#ffmksktoruym8)" height="166.875" id="App" style="stroke:#A80036;stroke-width:1.5;" width="119" x="98" y="7"/><ellipse cx="123.35" cy="27.0938" fill="#FFFF00" rx="11" ry="11" style="stroke:#A80036;stroke-width:1.0;"/><path d="M127.0375,28.2969 Q126.7875,31.7813 125.6469,32.9375 Q124.6156,33.9531 123.2094,33.9531 Q121.8031,33.9531 120.7719,32.9375 Q119.0219,31.1719 119.0219,27.5 Q119.0219,23.25 120.8969,21.3438 Q121.9438,20.3281 123.2719,20.3281 Q124.6781,20.3281 125.5219,21.1406 Q127.0063,22.6563 126.9281,25.5313 L124.8031,25.5313 Q124.725,23.2031 124.0844,22.5625 Q123.8031,22.2656 123.2719,22.2656 Q122.8188,22.2656 122.4594,22.6406 Q121.225,23.8594 121.225,27.375 Q121.225,30.4219 122.2719,31.4375 Q122.6938,31.875 123.2094,31.875 Q123.6625,31.875 124.1,31.4375 Q124.6625,30.8906 124.7406,28.2969 L127.0375,28.2969 Z " fill="#000000"/><text fill="#000000" font-family="sans-serif" font-size="12" font-style="italic" lengthAdjust="spacing" textLength="68" x="137.65" y="24.457">«Container»</text><text fill="#000000" font-family="sans-serif" font-size="12" lengthAdjust="spacing" textLength="22" x="160.65" y="39.5508">App</text><line style="stroke:#A80036;stroke-width:1.5;" x1="99" x2="216" y1="47.1875" y2="47.1875"/><polygon fill="none" points="109,72.0234,105,78.0234,113,78.0234" style="stroke:#1963A0;stroke-width:1.0;"/><text fill="#000000" font-family="sans-serif" font-size="11" lengthAdjust="spacing" textLength="64" x="118" y="80.4424">isShowModal</text><polygon fill="none" points="109,85.8594,105,91.8594,113,91.8594" style="stroke:#1963A0;stroke-width:1.0;"/><text fill="#000000" font-family="sans-serif" font-size="11" lengthAdjust="spacing" textLength="55" x="118" y="94.2783">formValues</text><polygon fill="none" points="109,99.6953,105,105.6953,113,105.6953" style="stroke:#1963A0;stroke-width:1.0;"/><text fill="#000000" font-family="sans-serif" font-size="11" lengthAdjust="spacing" textLength="93" x="118" y="108.1143">activeElemStocked</text><line style="stroke:#A80036;stroke-width:1.0;" x1="99" x2="145.5" y1="62.1055" y2="62.1055"/><line style="stroke:#A80036;stroke-width:1.0;" x1="99" x2="145.5" y1="64.1055" y2="64.1055"/><text fill="#000000" font-family="sans-serif" font-size="11" lengthAdjust="spacing" textLength="24" x="145.5" y="66.1064">state</text><line style="stroke:#A80036;stroke-width:1.0;" x1="169.5" x2="216" y1="62.1055" y2="62.1055"/><line style="stroke:#A80036;stroke-width:1.0;" x1="169.5" x2="216" y1="64.1055" y2="64.1055"/><ellipse cx="109" cy="135.3672" fill="#84BE84" rx="3" ry="3" style="stroke:#038048;stroke-width:1.0;"/><text fill="#000000" font-family="sans-serif" font-size="11" lengthAdjust="spacing" textLength="53" x="118" y="139.7861">onSubmit()</text><ellipse cx="109" cy="149.2031" fill="#84BE84" rx="3" ry="3" style="stroke:#038048;stroke-width:1.0;"/><text fill="#000000" font-family="sans-serif" font-size="11" lengthAdjust="spacing" textLength="77" x="118" y="153.6221">onCloseModal()</text><text fill="#000000" font-family="sans-serif" font-size="11" lengthAdjust="spacing" textLength="0" x="121" y="167.458"/><line style="stroke:#A80036;stroke-width:1.0;" x1="99" x2="136.5" y1="121.4492" y2="121.4492"/><line style="stroke:#A80036;stroke-width:1.0;" x1="99" x2="136.5" y1="123.4492" y2="123.4492"/><text fill="#000000" font-family="sans-serif" font-size="11" lengthAdjust="spacing" textLength="42" x="136.5" y="125.4502">methods</text><line style="stroke:#A80036;stroke-width:1.0;" x1="178.5" x2="216" y1="121.4492" y2="121.4492"/><line style="stroke:#A80036;stroke-width:1.0;" x1="178.5" x2="216" y1="123.4492" y2="123.4492"/><!--MD5=[e8596e6512dd75b357a11442231451d2]
class OpinionForm--><rect codeLine="13" fill="#FEFECE" filter="url(#ffmksktoruym8)" height="157.0391" id="OpinionForm" style="stroke:#A80036;stroke-width:1.5;" width="115" x="9" y="234"/><ellipse cx="28.05" cy="254.0938" fill="#008000" rx="11" ry="11" style="stroke:#A80036;stroke-width:1.0;"/><path d="M31.7375,255.2969 Q31.4875,258.7813 30.3469,259.9375 Q29.3156,260.9531 27.9094,260.9531 Q26.5031,260.9531 25.4719,259.9375 Q23.7219,258.1719 23.7219,254.5 Q23.7219,250.25 25.5969,248.3438 Q26.6438,247.3281 27.9719,247.3281 Q29.3781,247.3281 30.2219,248.1406 Q31.7063,249.6563 31.6281,252.5313 L29.5031,252.5313 Q29.425,250.2031 28.7844,249.5625 Q28.5031,249.2656 27.9719,249.2656 Q27.5188,249.2656 27.1594,249.6406 Q25.925,250.8594 25.925,254.375 Q25.925,257.4219 26.9719,258.4375 Q27.3938,258.875 27.9094,258.875 Q28.3625,258.875 28.8,258.4375 Q29.3625,257.8906 29.4406,255.2969 L31.7375,255.2969 Z " fill="#000000"/><text fill="#000000" font-family="sans-serif" font-size="12" font-style="italic" lengthAdjust="spacing" textLength="78" x="40.95" y="251.457">«Component»</text><text fill="#000000" font-family="sans-serif" font-size="12" lengthAdjust="spacing" textLength="71" x="44.45" y="266.5508">OpinionForm</text><line style="stroke:#A80036;stroke-width:1.5;" x1="10" x2="123" y1="274.1875" y2="274.1875"/><text fill="#000000" font-family="sans-serif" font-size="11" lengthAdjust="spacing" textLength="77" x="15" y="289.6064">ご意見フォーム</text><polygon fill="none" points="20,312.8594,16,318.8594,24,318.8594" style="stroke:#1963A0;stroke-width:1.0;"/><text fill="#000000" font-family="sans-serif" font-size="11" lengthAdjust="spacing" textLength="89" x="29" y="321.2783">methods:useForm</text><line style="stroke:#A80036;stroke-width:1.0;" x1="10" x2="54.5" y1="302.9414" y2="302.9414"/><line style="stroke:#A80036;stroke-width:1.0;" x1="10" x2="54.5" y1="304.9414" y2="304.9414"/><text fill="#000000" font-family="sans-serif" font-size="11" lengthAdjust="spacing" textLength="24" x="54.5" y="306.9424">state</text><line style="stroke:#A80036;stroke-width:1.0;" x1="78.5" x2="123" y1="302.9414" y2="302.9414"/><line style="stroke:#A80036;stroke-width:1.0;" x1="78.5" x2="123" y1="304.9414" y2="304.9414"/><polygon fill="#FFFF44" points="20,343.5313,24,347.5313,20,351.5313,16,347.5313" style="stroke:#B38D22;stroke-width:1.0;"/><text fill="#000000" font-family="sans-serif" font-size="11" lengthAdjust="spacing" textLength="53" x="29" y="352.9502">onSubmit()</text><line style="stroke:#A80036;stroke-width:1.0;" x1="10" x2="52.5" y1="334.6133" y2="334.6133"/><line style="stroke:#A80036;stroke-width:1.0;" x1="10" x2="52.5" y1="336.6133" y2="336.6133"/><text fill="#000000" font-family="sans-serif" font-size="11" lengthAdjust="spacing" textLength="28" x="52.5" y="338.6143">props</text><line style="stroke:#A80036;stroke-width:1.0;" x1="80.5" x2="123" y1="334.6133" y2="334.6133"/><line style="stroke:#A80036;stroke-width:1.0;" x1="80.5" x2="123" y1="336.6133" y2="336.6133"/><ellipse cx="20" cy="380.2031" fill="#84BE84" rx="3" ry="3" style="stroke:#038048;stroke-width:1.0;"/><text fill="#000000" font-family="sans-serif" font-size="11" lengthAdjust="spacing" textLength="53" x="29" y="384.6221">onSubmit()</text><line style="stroke:#A80036;stroke-width:1.0;" x1="10" x2="45.5" y1="366.2852" y2="366.2852"/><line style="stroke:#A80036;stroke-width:1.0;" x1="10" x2="45.5" y1="368.2852" y2="368.2852"/><text fill="#000000" font-family="sans-serif" font-size="11" lengthAdjust="spacing" textLength="42" x="45.5" y="370.2861">methods</text><line style="stroke:#A80036;stroke-width:1.0;" x1="87.5" x2="123" y1="366.2852" y2="366.2852"/><line style="stroke:#A80036;stroke-width:1.0;" x1="87.5" x2="123" y1="368.2852" y2="368.2852"/><!--MD5=[e3f62e65b975be338363b118c83a005a]
class Modalizer--><rect codeLine="23" fill="#FEFECE" filter="url(#ffmksktoruym8)" height="139.2031" id="Modalizer" style="stroke:#A80036;stroke-width:1.5;" width="181" x="159" y="243"/><ellipse cx="174" cy="263.0938" fill="#ADD8E6" rx="11" ry="11" style="stroke:#A80036;stroke-width:1.0;"/><path d="M177.6875,264.2969 Q177.4375,267.7813 176.2969,268.9375 Q175.2656,269.9531 173.8594,269.9531 Q172.4531,269.9531 171.4219,268.9375 Q169.6719,267.1719 169.6719,263.5 Q169.6719,259.25 171.5469,257.3438 Q172.5938,256.3281 173.9219,256.3281 Q175.3281,256.3281 176.1719,257.1406 Q177.6563,258.6563 177.5781,261.5313 L175.4531,261.5313 Q175.375,259.2031 174.7344,258.5625 Q174.4531,258.2656 173.9219,258.2656 Q173.4688,258.2656 173.1094,258.6406 Q171.875,259.8594 171.875,263.375 Q171.875,266.4219 172.9219,267.4375 Q173.3438,267.875 173.8594,267.875 Q174.3125,267.875 174.75,267.4375 Q175.3125,266.8906 175.3906,264.2969 L177.6875,264.2969 Z " fill="#000000"/><text fill="#000000" font-family="sans-serif" font-size="12" font-style="italic" lengthAdjust="spacing" textLength="153" x="186" y="260.457">«Higher-Order Component»</text><text fill="#000000" font-family="sans-serif" font-size="12" lengthAdjust="spacing" textLength="54" x="235.5" y="275.5508">Modalizer</text><line style="stroke:#A80036;stroke-width:1.5;" x1="160" x2="339" y1="283.1875" y2="283.1875"/><text fill="#000000" font-family="sans-serif" font-size="11" lengthAdjust="spacing" textLength="99" x="165" y="298.6064">子要素をモーダル化</text><polygon fill="none" points="170,320.8594,174,324.8594,170,328.8594,166,324.8594" style="stroke:#B38D22;stroke-width:1.0;"/><text fill="#000000" font-family="sans-serif" font-size="11" lengthAdjust="spacing" textLength="76" x="179" y="330.2783">modalContainer</text><polygon fill="none" points="170,334.6953,174,338.6953,170,342.6953,166,338.6953" style="stroke:#B38D22;stroke-width:1.0;"/><text fill="#000000" font-family="sans-serif" font-size="11" lengthAdjust="spacing" textLength="38" x="179" y="344.1143">children</text><line style="stroke:#A80036;stroke-width:1.0;" x1="160" x2="235.5" y1="311.9414" y2="311.9414"/><line style="stroke:#A80036;stroke-width:1.0;" x1="160" x2="235.5" y1="313.9414" y2="313.9414"/><text fill="#000000" font-family="sans-serif" font-size="11" lengthAdjust="spacing" textLength="28" x="235.5" y="315.9424">props</text><line style="stroke:#A80036;stroke-width:1.0;" x1="263.5" x2="339" y1="311.9414" y2="311.9414"/><line style="stroke:#A80036;stroke-width:1.0;" x1="263.5" x2="339" y1="313.9414" y2="313.9414"/><ellipse cx="170" cy="371.3672" fill="#84BE84" rx="3" ry="3" style="stroke:#038048;stroke-width:1.0;"/><text fill="#000000" font-family="sans-serif" font-size="11" lengthAdjust="spacing" textLength="67" x="179" y="375.7861">createPortal()</text><line style="stroke:#A80036;stroke-width:1.0;" x1="160" x2="235" y1="357.4492" y2="357.4492"/><line style="stroke:#A80036;stroke-width:1.0;" x1="160" x2="235" y1="359.4492" y2="359.4492"/><text fill="#000000" font-family="sans-serif" font-size="11" lengthAdjust="spacing" textLength="29" x="235" y="361.4502">return</text><line style="stroke:#A80036;stroke-width:1.0;" x1="264" x2="339" y1="357.4492" y2="357.4492"/><line style="stroke:#A80036;stroke-width:1.0;" x1="264" x2="339" y1="359.4492" y2="359.4492"/><!--MD5=[035ea4e1bd3745a7510ec1da55fa929a]
class SubmitIndicator--><rect codeLine="32" fill="#FEFECE" filter="url(#ffmksktoruym8)" height="180.7109" id="SubmitIndicator" style="stroke:#A80036;stroke-width:1.5;" width="191" x="154" y="451"/><ellipse cx="202.75" cy="471.0938" fill="#008000" rx="11" ry="11" style="stroke:#A80036;stroke-width:1.0;"/><path d="M206.4375,472.2969 Q206.1875,475.7813 205.0469,476.9375 Q204.0156,477.9531 202.6094,477.9531 Q201.2031,477.9531 200.1719,476.9375 Q198.4219,475.1719 198.4219,471.5 Q198.4219,467.25 200.2969,465.3438 Q201.3438,464.3281 202.6719,464.3281 Q204.0781,464.3281 204.9219,465.1406 Q206.4063,466.6563 206.3281,469.5313 L204.2031,469.5313 Q204.125,467.2031 203.4844,466.5625 Q203.2031,466.2656 202.6719,466.2656 Q202.2188,466.2656 201.8594,466.6406 Q200.625,467.8594 200.625,471.375 Q200.625,474.4219 201.6719,475.4375 Q202.0938,475.875 202.6094,475.875 Q203.0625,475.875 203.5,475.4375 Q204.0625,474.8906 204.1406,472.2969 L206.4375,472.2969 Z " fill="#000000"/><text fill="#000000" font-family="sans-serif" font-size="12" font-style="italic" lengthAdjust="spacing" textLength="78" x="226.75" y="468.457">«Component»</text><text fill="#000000" font-family="sans-serif" font-size="12" lengthAdjust="spacing" textLength="85" x="223.25" y="483.5508">SubmitIndicator</text><line style="stroke:#A80036;stroke-width:1.5;" x1="155" x2="344" y1="491.1875" y2="491.1875"/><text fill="#000000" font-family="sans-serif" font-size="11" lengthAdjust="spacing" textLength="132" x="160" y="506.6064">送信完了表示ポップアップ</text><polygon fill="none" points="165,528.8594,169,532.8594,165,536.8594,161,532.8594" style="stroke:#B38D22;stroke-width:1.0;"/><text fill="#000000" font-family="sans-serif" font-size="11" lengthAdjust="spacing" textLength="55" x="174" y="538.2783">formValues</text><polygon fill="none" points="165,542.6953,169,546.6953,165,550.6953,161,546.6953" style="stroke:#B38D22;stroke-width:1.0;"/><text fill="#000000" font-family="sans-serif" font-size="11" lengthAdjust="spacing" textLength="69" x="174" y="552.1143">onCloseModal</text><line style="stroke:#A80036;stroke-width:1.0;" x1="155" x2="235.5" y1="519.9414" y2="519.9414"/><line style="stroke:#A80036;stroke-width:1.0;" x1="155" x2="235.5" y1="521.9414" y2="521.9414"/><text fill="#000000" font-family="sans-serif" font-size="11" lengthAdjust="spacing" textLength="28" x="235.5" y="523.9424">props</text><line style="stroke:#A80036;stroke-width:1.0;" x1="263.5" x2="344" y1="519.9414" y2="519.9414"/><line style="stroke:#A80036;stroke-width:1.0;" x1="263.5" x2="344" y1="521.9414" y2="521.9414"/><ellipse cx="165" cy="579.3672" fill="#84BE84" rx="3" ry="3" style="stroke:#038048;stroke-width:1.0;"/><text fill="#000000" font-family="sans-serif" font-size="11" lengthAdjust="spacing" textLength="72" x="174" y="583.7861">onClickClose()</text><ellipse cx="165" cy="593.2031" fill="#84BE84" rx="3" ry="3" style="stroke:#038048;stroke-width:1.0;"/><text fill="#000000" font-family="sans-serif" font-size="11" lengthAdjust="spacing" textLength="96" x="174" y="597.6221">onClickDownLoad()</text><ellipse cx="165" cy="607.0391" fill="#84BE84" rx="3" ry="3" style="stroke:#038048;stroke-width:1.0;"/><text fill="#000000" font-family="sans-serif" font-size="11" lengthAdjust="spacing" textLength="165" x="174" y="611.458">createTextForAccepttedContent()</text><ellipse cx="165" cy="620.875" fill="#84BE84" rx="3" ry="3" style="stroke:#038048;stroke-width:1.0;"/><text fill="#000000" font-family="sans-serif" font-size="11" lengthAdjust="spacing" textLength="82" x="174" y="625.2939">createTextBlob()</text><line style="stroke:#A80036;stroke-width:1.0;" x1="155" x2="228.5" y1="565.4492" y2="565.4492"/><line style="stroke:#A80036;stroke-width:1.0;" x1="155" x2="228.5" y1="567.4492" y2="567.4492"/><text fill="#000000" font-family="sans-serif" font-size="11" lengthAdjust="spacing" textLength="42" x="228.5" y="569.4502">methods</text><line style="stroke:#A80036;stroke-width:1.0;" x1="270.5" x2="344" y1="565.4492" y2="565.4492"/><line style="stroke:#A80036;stroke-width:1.0;" x1="270.5" x2="344" y1="567.4492" y2="567.4492"/><!--MD5=[7bf55a777ad2988ae6df4e05250999b0]
reverse link App to OpinionForm--><path codeLine="44" d="M118.35,186.14 C111.75,202.1 104.97,218.49 98.58,233.95 " fill="none" id="App-backto-OpinionForm" style="stroke:#A80036;stroke-width:1.0;"/><polygon fill="#FFFFFF" points="123.36,174.05,117.3698,178.0647,118.7718,185.1382,124.762,181.1235,123.36,174.05" style="stroke:#A80036;stroke-width:1.0;"/><!--MD5=[839a923bdee44a147b70884ca31034af]
reverse link App to Modalizer--><path codeLine="45" d="M197.08,186.14 C205.05,205.2 213.28,224.9 220.8,242.87 " fill="none" id="App-backto-Modalizer" style="stroke:#A80036;stroke-width:1.0;"/><polygon fill="#FFFFFF" points="192.02,174.05,190.6456,181.1289,196.6513,185.1203,198.0257,178.0414,192.02,174.05" style="stroke:#A80036;stroke-width:1.0;"/><!--MD5=[a59baac61fba5ef7608cd043d5c3808c]
link Modalizer to SubmitIndicator--><path codeLine="46" d="M249.5,382.22 C249.5,403.75 249.5,427.85 249.5,450.61 " fill="none" id="Modalizer-SubmitIndicator" style="stroke:#A80036;stroke-width:1.0;"/><!--MD5=[2c44d518e4c68aecaaf61f1158a157e1]
@startuml class diagram

class App << (C,yellow) Container>> {
    ==state==
    ~isShowModal
    ~formValues
    ~activeElemStocked
    ==methods==
    +onSubmit()
    +onCloseModal()

}

class OpinionForm << (C,green) Component>> {
    ご意見フォーム
    ==state==
    ~methods:useForm
    ==props==
    #onSubmit()
    ==methods==
    +onSubmit()
}

class Modalizer << (C,lightblue) Higher-Order Component>> {
    子要素をモーダル化
    ==props==
    #modalContainer
    #children
    ==return==
    +createPortal()
}

class SubmitIndicator << (C,green) Component>> {
    送信完了表示ポップアップ
    ==props==
    #formValues
    #onCloseModal
    ==methods==
    +onClickClose()
    +onClickDownLoad()
    +createTextForAccepttedContent()
    +createTextBlob()
}

App o- - OpinionForm
App o- - Modalizer
Modalizer - - SubmitIndicator

@enduml

PlantUML version 1.2021.7(Sun May 23 21:40:07 JST 2021)
(GPL source distribution)
Java Runtime: Java(TM) SE Runtime Environment
JVM: Java HotSpot(TM) 64-Bit Server VM
Default Encoding: MS932
Language: ja
Country: JP
--></g></svg>