<?xml version="1.0" encoding="UTF-8" standalone="no"?><svg xmlns="http://www.w3.org/2000/svg" xmlns:xlink="http://www.w3.org/1999/xlink" contentScriptType="application/ecmascript" contentStyleType="text/css" height="440px" preserveAspectRatio="none" style="width:835px;height:440px;background:#FFFFFF;" version="1.1" viewBox="0 0 835 440" width="835px" zoomAndPan="magnify"><defs><filter height="300%" id="f1rgi4gkezbr5x" width="300%" x="-1" y="-1"><feGaussianBlur result="blurOut" stdDeviation="2.0"/><feColorMatrix in="blurOut" result="blurOut2" type="matrix" values="0 0 0 0 0 0 0 0 0 0 0 0 0 0 0 0 0 0 .4 0"/><feOffset dx="4.0" dy="4.0" in="blurOut2" result="blurOut3"/><feBlend in="SourceGraphic" in2="blurOut3" mode="normal"/></filter></defs><g><!--MD5=[335f4d9be48430461c68bf6d6fdba145]
class App--><rect codeLine="2" fill="#FEFECE" filter="url(#f1rgi4gkezbr5x)" height="139.2031" id="App" style="stroke:#A80036;stroke-width:1.5;" width="99" x="296.5" y="7"/><ellipse cx="312.85" cy="27.0938" fill="#FFFF00" rx="11" ry="11" style="stroke:#A80036;stroke-width:1.0;"/><path d="M316.5375,28.2969 Q316.2875,31.7813 315.1469,32.9375 Q314.1156,33.9531 312.7094,33.9531 Q311.3031,33.9531 310.2719,32.9375 Q308.5219,31.1719 308.5219,27.5 Q308.5219,23.25 310.3969,21.3438 Q311.4438,20.3281 312.7719,20.3281 Q314.1781,20.3281 315.0219,21.1406 Q316.5063,22.6563 316.4281,25.5313 L314.3031,25.5313 Q314.225,23.2031 313.5844,22.5625 Q313.3031,22.2656 312.7719,22.2656 Q312.3188,22.2656 311.9594,22.6406 Q310.725,23.8594 310.725,27.375 Q310.725,30.4219 311.7719,31.4375 Q312.1938,31.875 312.7094,31.875 Q313.1625,31.875 313.6,31.4375 Q314.1625,30.8906 314.2406,28.2969 L316.5375,28.2969 Z " fill="#000000"/><text fill="#000000" font-family="sans-serif" font-size="12" font-style="italic" lengthAdjust="spacing" textLength="68" x="325.15" y="24.457">«Container»</text><text fill="#000000" font-family="sans-serif" font-size="12" lengthAdjust="spacing" textLength="22" x="348.15" y="39.5508">App</text><line style="stroke:#A80036;stroke-width:1.5;" x1="297.5" x2="394.5" y1="47.1875" y2="47.1875"/><polygon fill="none" points="307.5,72.0234,303.5,78.0234,311.5,78.0234" style="stroke:#1963A0;stroke-width:1.0;"/><text fill="#000000" font-family="sans-serif" font-size="11" lengthAdjust="spacing" textLength="56" x="316.5" y="80.4424">isSubmitted</text><polygon fill="none" points="307.5,85.8594,303.5,91.8594,311.5,91.8594" style="stroke:#1963A0;stroke-width:1.0;"/><text fill="#000000" font-family="sans-serif" font-size="11" lengthAdjust="spacing" textLength="55" x="316.5" y="94.2783">formValues</text><line style="stroke:#A80036;stroke-width:1.0;" x1="297.5" x2="334" y1="62.1055" y2="62.1055"/><line style="stroke:#A80036;stroke-width:1.0;" x1="297.5" x2="334" y1="64.1055" y2="64.1055"/><text fill="#000000" font-family="sans-serif" font-size="11" lengthAdjust="spacing" textLength="24" x="334" y="66.1064">state</text><line style="stroke:#A80036;stroke-width:1.0;" x1="358" x2="394.5" y1="62.1055" y2="62.1055"/><line style="stroke:#A80036;stroke-width:1.0;" x1="358" x2="394.5" y1="64.1055" y2="64.1055"/><ellipse cx="307.5" cy="121.5313" fill="#84BE84" rx="3" ry="3" style="stroke:#038048;stroke-width:1.0;"/><text fill="#000000" font-family="sans-serif" font-size="11" lengthAdjust="spacing" textLength="73" x="316.5" y="125.9502">handleSubmit()</text><text fill="#000000" font-family="sans-serif" font-size="11" lengthAdjust="spacing" textLength="0" x="319.5" y="139.7861"/><line style="stroke:#A80036;stroke-width:1.0;" x1="297.5" x2="325" y1="107.6133" y2="107.6133"/><line style="stroke:#A80036;stroke-width:1.0;" x1="297.5" x2="325" y1="109.6133" y2="109.6133"/><text fill="#000000" font-family="sans-serif" font-size="11" lengthAdjust="spacing" textLength="42" x="325" y="111.6143">methods</text><line style="stroke:#A80036;stroke-width:1.0;" x1="367" x2="394.5" y1="107.6133" y2="107.6133"/><line style="stroke:#A80036;stroke-width:1.0;" x1="367" x2="394.5" y1="109.6133" y2="109.6133"/><!--MD5=[d10018d7374cb536a2ec2f77e731452b]
class Header--><rect codeLine="11" fill="#FEFECE" filter="url(#f1rgi4gkezbr5x)" height="107.5313" id="Header" style="stroke:#A80036;stroke-width:1.5;" width="110" x="7" y="262"/><ellipse cx="23.8" cy="282.0938" fill="#008000" rx="11" ry="11" style="stroke:#A80036;stroke-width:1.0;"/><path d="M27.4875,283.2969 Q27.2375,286.7813 26.0969,287.9375 Q25.0656,288.9531 23.6594,288.9531 Q22.2531,288.9531 21.2219,287.9375 Q19.4719,286.1719 19.4719,282.5 Q19.4719,278.25 21.3469,276.3438 Q22.3938,275.3281 23.7219,275.3281 Q25.1281,275.3281 25.9719,276.1406 Q27.4563,277.6563 27.3781,280.5313 L25.2531,280.5313 Q25.175,278.2031 24.5344,277.5625 Q24.2531,277.2656 23.7219,277.2656 Q23.2688,277.2656 22.9094,277.6406 Q21.675,278.8594 21.675,282.375 Q21.675,285.4219 22.7219,286.4375 Q23.1438,286.875 23.6594,286.875 Q24.1125,286.875 24.55,286.4375 Q25.1125,285.8906 25.1906,283.2969 L27.4875,283.2969 Z " fill="#000000"/><text fill="#000000" font-family="sans-serif" font-size="12" font-style="italic" lengthAdjust="spacing" textLength="78" x="36.2" y="279.457">«Component»</text><text fill="#000000" font-family="sans-serif" font-size="12" lengthAdjust="spacing" textLength="41" x="54.7" y="294.5508">Header</text><line style="stroke:#A80036;stroke-width:1.5;" x1="8" x2="116" y1="302.1875" y2="302.1875"/><text fill="#000000" font-family="sans-serif" font-size="11" lengthAdjust="spacing" textLength="44" x="13" y="317.6064">ヘッダー</text><text fill="#000000" font-family="sans-serif" font-size="11" lengthAdjust="spacing" textLength="38" x="13" y="349.2783">&lt;Link&gt;:/</text><text fill="#000000" font-family="sans-serif" font-size="11" lengthAdjust="spacing" textLength="98" x="13" y="363.1143">&lt;Link&gt;:/opinion-form</text><line style="stroke:#A80036;stroke-width:1.0;" x1="8" x2="21" y1="330.9414" y2="330.9414"/><line style="stroke:#A80036;stroke-width:1.0;" x1="8" x2="21" y1="332.9414" y2="332.9414"/><text fill="#000000" font-family="sans-serif" font-size="11" lengthAdjust="spacing" textLength="82" x="21" y="334.9424">inner-component</text><line style="stroke:#A80036;stroke-width:1.0;" x1="103" x2="116" y1="330.9414" y2="330.9414"/><line style="stroke:#A80036;stroke-width:1.0;" x1="103" x2="116" y1="332.9414" y2="332.9414"/><!--MD5=[026c1e9a4dc23b57e6998280acb2cb32]
class Footer--><rect codeLine="17" fill="#FEFECE" filter="url(#f1rgi4gkezbr5x)" height="70.0234" id="Footer" style="stroke:#A80036;stroke-width:1.5;" width="106" x="152" y="281"/><ellipse cx="167" cy="301.0938" fill="#008000" rx="11" ry="11" style="stroke:#A80036;stroke-width:1.0;"/><path d="M170.6875,302.2969 Q170.4375,305.7813 169.2969,306.9375 Q168.2656,307.9531 166.8594,307.9531 Q165.4531,307.9531 164.4219,306.9375 Q162.6719,305.1719 162.6719,301.5 Q162.6719,297.25 164.5469,295.3438 Q165.5938,294.3281 166.9219,294.3281 Q168.3281,294.3281 169.1719,295.1406 Q170.6563,296.6563 170.5781,299.5313 L168.4531,299.5313 Q168.375,297.2031 167.7344,296.5625 Q167.4531,296.2656 166.9219,296.2656 Q166.4688,296.2656 166.1094,296.6406 Q164.875,297.8594 164.875,301.375 Q164.875,304.4219 165.9219,305.4375 Q166.3438,305.875 166.8594,305.875 Q167.3125,305.875 167.75,305.4375 Q168.3125,304.8906 168.3906,302.2969 L170.6875,302.2969 Z " fill="#000000"/><text fill="#000000" font-family="sans-serif" font-size="12" font-style="italic" lengthAdjust="spacing" textLength="78" x="179" y="298.457">«Component»</text><text fill="#000000" font-family="sans-serif" font-size="12" lengthAdjust="spacing" textLength="35" x="200.5" y="313.5508">Footer</text><line style="stroke:#A80036;stroke-width:1.5;" x1="153" x2="257" y1="321.1875" y2="321.1875"/><text fill="#000000" font-family="sans-serif" font-size="11" lengthAdjust="spacing" textLength="44" x="158" y="336.6064">フッター</text><line style="stroke:#A80036;stroke-width:1.5;" x1="153" x2="257" y1="343.0234" y2="343.0234"/><!--MD5=[85bae912d113bb0b86a623a745020199]
class Home--><rect codeLine="20" fill="#FEFECE" filter="url(#f1rgi4gkezbr5x)" height="93.6953" id="Home" style="stroke:#A80036;stroke-width:1.5;" width="106" x="293" y="269"/><ellipse cx="308" cy="289.0938" fill="#008000" rx="11" ry="11" style="stroke:#A80036;stroke-width:1.0;"/><path d="M311.6875,290.2969 Q311.4375,293.7813 310.2969,294.9375 Q309.2656,295.9531 307.8594,295.9531 Q306.4531,295.9531 305.4219,294.9375 Q303.6719,293.1719 303.6719,289.5 Q303.6719,285.25 305.5469,283.3438 Q306.5938,282.3281 307.9219,282.3281 Q309.3281,282.3281 310.1719,283.1406 Q311.6563,284.6563 311.5781,287.5313 L309.4531,287.5313 Q309.375,285.2031 308.7344,284.5625 Q308.4531,284.2656 307.9219,284.2656 Q307.4688,284.2656 307.1094,284.6406 Q305.875,285.8594 305.875,289.375 Q305.875,292.4219 306.9219,293.4375 Q307.3438,293.875 307.8594,293.875 Q308.3125,293.875 308.75,293.4375 Q309.3125,292.8906 309.3906,290.2969 L311.6875,290.2969 Z " fill="#000000"/><text fill="#000000" font-family="sans-serif" font-size="12" font-style="italic" lengthAdjust="spacing" textLength="78" x="320" y="286.457">«Component»</text><text fill="#000000" font-family="sans-serif" font-size="12" lengthAdjust="spacing" textLength="33" x="342.5" y="301.5508">Home</text><line style="stroke:#A80036;stroke-width:1.5;" x1="294" x2="398" y1="309.1875" y2="309.1875"/><text fill="#000000" font-family="sans-serif" font-size="11" lengthAdjust="spacing" textLength="62" x="299" y="324.6064">Homeページ</text><text fill="#000000" font-family="sans-serif" font-size="11" lengthAdjust="spacing" textLength="3" x="299" y="356.2783">/</text><line style="stroke:#A80036;stroke-width:1.0;" x1="294" x2="335" y1="337.9414" y2="337.9414"/><line style="stroke:#A80036;stroke-width:1.0;" x1="294" x2="335" y1="339.9414" y2="339.9414"/><text fill="#000000" font-family="sans-serif" font-size="11" lengthAdjust="spacing" textLength="22" x="335" y="341.9424">URL</text><line style="stroke:#A80036;stroke-width:1.0;" x1="357" x2="398" y1="337.9414" y2="337.9414"/><line style="stroke:#A80036;stroke-width:1.0;" x1="357" x2="398" y1="339.9414" y2="339.9414"/><!--MD5=[e8596e6512dd75b357a11442231451d2]
class OpinionForm--><rect codeLine="27" fill="#FEFECE" filter="url(#f1rgi4gkezbr5x)" height="220.3828" id="OpinionForm" style="stroke:#A80036;stroke-width:1.5;" width="161" x="434.5" y="206"/><ellipse cx="474.25" cy="226.0938" fill="#008000" rx="11" ry="11" style="stroke:#A80036;stroke-width:1.0;"/><path d="M477.9375,227.2969 Q477.6875,230.7813 476.5469,231.9375 Q475.5156,232.9531 474.1094,232.9531 Q472.7031,232.9531 471.6719,231.9375 Q469.9219,230.1719 469.9219,226.5 Q469.9219,222.25 471.7969,220.3438 Q472.8438,219.3281 474.1719,219.3281 Q475.5781,219.3281 476.4219,220.1406 Q477.9063,221.6563 477.8281,224.5313 L475.7031,224.5313 Q475.625,222.2031 474.9844,221.5625 Q474.7031,221.2656 474.1719,221.2656 Q473.7188,221.2656 473.3594,221.6406 Q472.125,222.8594 472.125,226.375 Q472.125,229.4219 473.1719,230.4375 Q473.5938,230.875 474.1094,230.875 Q474.5625,230.875 475,230.4375 Q475.5625,229.8906 475.6406,227.2969 L477.9375,227.2969 Z " fill="#000000"/><text fill="#000000" font-family="sans-serif" font-size="12" font-style="italic" lengthAdjust="spacing" textLength="78" x="491.75" y="223.457">«Component»</text><text fill="#000000" font-family="sans-serif" font-size="12" lengthAdjust="spacing" textLength="71" x="495.25" y="238.5508">OpinionForm</text><line style="stroke:#A80036;stroke-width:1.5;" x1="435.5" x2="594.5" y1="246.1875" y2="246.1875"/><text fill="#000000" font-family="sans-serif" font-size="11" lengthAdjust="spacing" textLength="110" x="440.5" y="261.6064">ご意見フォームページ</text><text fill="#000000" font-family="sans-serif" font-size="11" lengthAdjust="spacing" textLength="63" x="440.5" y="293.2783">/opinion-form</text><line style="stroke:#A80036;stroke-width:1.0;" x1="435.5" x2="504" y1="274.9414" y2="274.9414"/><line style="stroke:#A80036;stroke-width:1.0;" x1="435.5" x2="504" y1="276.9414" y2="276.9414"/><text fill="#000000" font-family="sans-serif" font-size="11" lengthAdjust="spacing" textLength="22" x="504" y="278.9424">URL</text><line style="stroke:#A80036;stroke-width:1.0;" x1="526" x2="594.5" y1="274.9414" y2="274.9414"/><line style="stroke:#A80036;stroke-width:1.0;" x1="526" x2="594.5" y1="276.9414" y2="276.9414"/><polygon fill="none" points="445.5,316.5313,441.5,322.5313,449.5,322.5313" style="stroke:#1963A0;stroke-width:1.0;"/><text fill="#000000" font-family="sans-serif" font-size="11" lengthAdjust="spacing" textLength="116" x="454.5" y="324.9502">RHF-methods:useForm</text><line style="stroke:#A80036;stroke-width:1.0;" x1="435.5" x2="503" y1="306.6133" y2="306.6133"/><line style="stroke:#A80036;stroke-width:1.0;" x1="435.5" x2="503" y1="308.6133" y2="308.6133"/><text fill="#000000" font-family="sans-serif" font-size="11" lengthAdjust="spacing" textLength="24" x="503" y="310.6143">state</text><line style="stroke:#A80036;stroke-width:1.0;" x1="527" x2="594.5" y1="306.6133" y2="306.6133"/><line style="stroke:#A80036;stroke-width:1.0;" x1="527" x2="594.5" y1="308.6133" y2="308.6133"/><polygon fill="#FFFF44" points="445.5,347.2031,449.5,351.2031,445.5,355.2031,441.5,351.2031" style="stroke:#B38D22;stroke-width:1.0;"/><text fill="#000000" font-family="sans-serif" font-size="11" lengthAdjust="spacing" textLength="53" x="454.5" y="356.6221">onSubmit()</text><line style="stroke:#A80036;stroke-width:1.0;" x1="435.5" x2="501" y1="338.2852" y2="338.2852"/><line style="stroke:#A80036;stroke-width:1.0;" x1="435.5" x2="501" y1="340.2852" y2="340.2852"/><text fill="#000000" font-family="sans-serif" font-size="11" lengthAdjust="spacing" textLength="28" x="501" y="342.2861">props</text><line style="stroke:#A80036;stroke-width:1.0;" x1="529" x2="594.5" y1="338.2852" y2="338.2852"/><line style="stroke:#A80036;stroke-width:1.0;" x1="529" x2="594.5" y1="340.2852" y2="340.2852"/><ellipse cx="445.5" cy="383.875" fill="#84BE84" rx="3" ry="3" style="stroke:#038048;stroke-width:1.0;"/><text fill="#000000" font-family="sans-serif" font-size="11" lengthAdjust="spacing" textLength="79" x="454.5" y="388.2939">onFormSubmit()</text><line style="stroke:#A80036;stroke-width:1.0;" x1="435.5" x2="494" y1="369.957" y2="369.957"/><line style="stroke:#A80036;stroke-width:1.0;" x1="435.5" x2="494" y1="371.957" y2="371.957"/><text fill="#000000" font-family="sans-serif" font-size="11" lengthAdjust="spacing" textLength="42" x="494" y="373.958">methods</text><line style="stroke:#A80036;stroke-width:1.0;" x1="536" x2="594.5" y1="369.957" y2="369.957"/><line style="stroke:#A80036;stroke-width:1.0;" x1="536" x2="594.5" y1="371.957" y2="371.957"/><text fill="#000000" font-family="sans-serif" font-size="11" lengthAdjust="spacing" textLength="149" x="440.5" y="419.9658">&lt;Prompt&gt;:ページ遷移前に警告</text><line style="stroke:#A80036;stroke-width:1.0;" x1="435.5" x2="474" y1="401.6289" y2="401.6289"/><line style="stroke:#A80036;stroke-width:1.0;" x1="435.5" x2="474" y1="403.6289" y2="403.6289"/><text fill="#000000" font-family="sans-serif" font-size="11" lengthAdjust="spacing" textLength="82" x="474" y="405.6299">inner-component</text><line style="stroke:#A80036;stroke-width:1.0;" x1="556" x2="594.5" y1="401.6289" y2="401.6289"/><line style="stroke:#A80036;stroke-width:1.0;" x1="556" x2="594.5" y1="403.6289" y2="403.6289"/><!--MD5=[035ea4e1bd3745a7510ec1da55fa929a]
class SubmitIndicator--><rect codeLine="42" fill="#FEFECE" filter="url(#f1rgi4gkezbr5x)" height="212.3828" id="SubmitIndicator" style="stroke:#A80036;stroke-width:1.5;" width="191" x="630.5" y="210"/><ellipse cx="679.25" cy="230.0938" fill="#008000" rx="11" ry="11" style="stroke:#A80036;stroke-width:1.0;"/><path d="M682.9375,231.2969 Q682.6875,234.7813 681.5469,235.9375 Q680.5156,236.9531 679.1094,236.9531 Q677.7031,236.9531 676.6719,235.9375 Q674.9219,234.1719 674.9219,230.5 Q674.9219,226.25 676.7969,224.3438 Q677.8438,223.3281 679.1719,223.3281 Q680.5781,223.3281 681.4219,224.1406 Q682.9063,225.6563 682.8281,228.5313 L680.7031,228.5313 Q680.625,226.2031 679.9844,225.5625 Q679.7031,225.2656 679.1719,225.2656 Q678.7188,225.2656 678.3594,225.6406 Q677.125,226.8594 677.125,230.375 Q677.125,233.4219 678.1719,234.4375 Q678.5938,234.875 679.1094,234.875 Q679.5625,234.875 680,234.4375 Q680.5625,233.8906 680.6406,231.2969 L682.9375,231.2969 Z " fill="#000000"/><text fill="#000000" font-family="sans-serif" font-size="12" font-style="italic" lengthAdjust="spacing" textLength="78" x="703.25" y="227.457">«Component»</text><text fill="#000000" font-family="sans-serif" font-size="12" lengthAdjust="spacing" textLength="85" x="699.75" y="242.5508">SubmitIndicator</text><line style="stroke:#A80036;stroke-width:1.5;" x1="631.5" x2="820.5" y1="250.1875" y2="250.1875"/><text fill="#000000" font-family="sans-serif" font-size="11" lengthAdjust="spacing" textLength="99" x="636.5" y="265.6064">送信完了表示ページ</text><text fill="#000000" font-family="sans-serif" font-size="11" lengthAdjust="spacing" textLength="30" x="636.5" y="297.2783">/result</text><line style="stroke:#A80036;stroke-width:1.0;" x1="631.5" x2="715" y1="278.9414" y2="278.9414"/><line style="stroke:#A80036;stroke-width:1.0;" x1="631.5" x2="715" y1="280.9414" y2="280.9414"/><text fill="#000000" font-family="sans-serif" font-size="11" lengthAdjust="spacing" textLength="22" x="715" y="282.9424">URL</text><line style="stroke:#A80036;stroke-width:1.0;" x1="737" x2="820.5" y1="278.9414" y2="278.9414"/><line style="stroke:#A80036;stroke-width:1.0;" x1="737" x2="820.5" y1="280.9414" y2="280.9414"/><polygon fill="none" points="641.5,319.5313,645.5,323.5313,641.5,327.5313,637.5,323.5313" style="stroke:#B38D22;stroke-width:1.0;"/><text fill="#000000" font-family="sans-serif" font-size="11" lengthAdjust="spacing" textLength="72" x="650.5" y="328.9502">setIsSubmitted</text><polygon fill="none" points="641.5,333.3672,645.5,337.3672,641.5,341.3672,637.5,337.3672" style="stroke:#B38D22;stroke-width:1.0;"/><text fill="#000000" font-family="sans-serif" font-size="11" lengthAdjust="spacing" textLength="55" x="650.5" y="342.7861">formValues</text><line style="stroke:#A80036;stroke-width:1.0;" x1="631.5" x2="712" y1="310.6133" y2="310.6133"/><line style="stroke:#A80036;stroke-width:1.0;" x1="631.5" x2="712" y1="312.6133" y2="312.6133"/><text fill="#000000" font-family="sans-serif" font-size="11" lengthAdjust="spacing" textLength="28" x="712" y="314.6143">props</text><line style="stroke:#A80036;stroke-width:1.0;" x1="740" x2="820.5" y1="310.6133" y2="310.6133"/><line style="stroke:#A80036;stroke-width:1.0;" x1="740" x2="820.5" y1="312.6133" y2="312.6133"/><ellipse cx="641.5" cy="370.0391" fill="#84BE84" rx="3" ry="3" style="stroke:#038048;stroke-width:1.0;"/><text fill="#000000" font-family="sans-serif" font-size="11" lengthAdjust="spacing" textLength="96" x="650.5" y="374.458">onClickDownLoad()</text><ellipse cx="641.5" cy="383.875" fill="#84BE84" rx="3" ry="3" style="stroke:#038048;stroke-width:1.0;"/><text fill="#000000" font-family="sans-serif" font-size="11" lengthAdjust="spacing" textLength="165" x="650.5" y="388.2939">createTextForAccepttedContent()</text><ellipse cx="641.5" cy="397.7109" fill="#84BE84" rx="3" ry="3" style="stroke:#038048;stroke-width:1.0;"/><text fill="#000000" font-family="sans-serif" font-size="11" lengthAdjust="spacing" textLength="82" x="650.5" y="402.1299">createTextBlob()</text><ellipse cx="641.5" cy="411.5469" fill="#84BE84" rx="3" ry="3" style="stroke:#038048;stroke-width:1.0;"/><text fill="#000000" font-family="sans-serif" font-size="11" lengthAdjust="spacing" textLength="73" x="650.5" y="415.9658">parseGender()</text><line style="stroke:#A80036;stroke-width:1.0;" x1="631.5" x2="705" y1="356.1211" y2="356.1211"/><line style="stroke:#A80036;stroke-width:1.0;" x1="631.5" x2="705" y1="358.1211" y2="358.1211"/><text fill="#000000" font-family="sans-serif" font-size="11" lengthAdjust="spacing" textLength="42" x="705" y="360.1221">methods</text><line style="stroke:#A80036;stroke-width:1.0;" x1="747" x2="820.5" y1="356.1211" y2="356.1211"/><line style="stroke:#A80036;stroke-width:1.0;" x1="747" x2="820.5" y1="358.1211" y2="358.1211"/><!--MD5=[bc7062c7955dc0e674b92ec5e1657d23]
reverse link App to Header--><path codeLine="56" d="M284.67,105.47 C239.48,128.14 178.42,163.27 134,206 C117.25,222.12 102.37,242.8 90.55,261.81 " fill="none" id="App-backto-Header" style="stroke:#A80036;stroke-width:1.0;"/><polygon fill="#FFFFFF" points="296.38,99.7,289.23,98.7634,285.6154,105.0031,292.7654,105.9398,296.38,99.7" style="stroke:#A80036;stroke-width:1.0;"/><!--MD5=[4423b59bd73d4d2bd455bb0673f6987f]
reverse link App to Footer--><path codeLine="57" d="M298.49,157.53 C273.59,199.47 244.39,248.64 225.34,280.74 " fill="none" id="App-backto-Footer" style="stroke:#A80036;stroke-width:1.0;"/><polygon fill="#FFFFFF" points="305.22,146.19,298.7153,149.3027,299.0868,156.5043,305.5915,153.3915,305.22,146.19" style="stroke:#A80036;stroke-width:1.0;"/><!--MD5=[88dc66b8abbe99c54d271c77df67e506]
reverse link App to Home--><path codeLine="58" d="M346,159.44 C346,196.09 346,237.94 346,269 " fill="none" id="App-backto-Home" style="stroke:#A80036;stroke-width:1.0;"/><polygon fill="#FFFFFF" points="346,146.19,342,152.19,346,158.19,350,152.19,346,146.19" style="stroke:#A80036;stroke-width:1.0;"/><!--MD5=[7bf55a777ad2988ae6df4e05250999b0]
reverse link App to OpinionForm--><path codeLine="59" d="M402.48,156.87 C413.64,172.55 425.53,189.27 437.26,205.74 " fill="none" id="App-backto-OpinionForm" style="stroke:#A80036;stroke-width:1.0;"/><polygon fill="#FFFFFF" points="394.88,146.19,395.0932,153.398,401.8286,155.9735,401.6155,148.7655,394.88,146.19" style="stroke:#A80036;stroke-width:1.0;"/><!--MD5=[9e744a3500ea364272b87dfd250377eb]
reverse link App to SubmitIndicator--><path codeLine="60" d="M408.06,100.75 C464.21,123.28 547.83,160.65 613,206 C618.82,210.05 624.62,214.4 630.35,218.95 " fill="none" id="App-backto-SubmitIndicator" style="stroke:#A80036;stroke-width:1.0;"/><polygon fill="#FFFFFF" points="395.81,95.89,399.9159,101.818,406.9671,100.308,402.8612,94.38,395.81,95.89" style="stroke:#A80036;stroke-width:1.0;"/><!--MD5=[a4bc5d472e74f112fc04d7fd1bf43c12]
@startuml class diagram

class App << (C,yellow) Container>> {
    ==state==
    ~isSubmitted
    ~formValues
    ==methods==
    +handleSubmit()

}

class Header << (C,green) Component>> {
    ヘッダー
    ==inner-component==
    <Link>:/
    <Link>:/opinion-form
}
class Footer << (C,green) Component>> {
    フッター
}
class Home << (C,green) Component>> {
    Homeページ
    ==URL==
    /
}


class OpinionForm << (C,green) Component>> {
    ご意見フォームページ
    ==URL==
    /opinion-form
    ==state==
    ~RHF-methods:useForm
    ==props==
    #onSubmit()
    ==methods==
    +onFormSubmit()
    ==inner-component==
    <Prompt>:ページ遷移前に警告
}


class SubmitIndicator << (C,green) Component>> {
    送信完了表示ページ
    ==URL==
    /result
    ==props==
    #setIsSubmitted
    #formValues
    ==methods==
    +onClickDownLoad()
    +createTextForAccepttedContent()
    +createTextBlob()
    +parseGender()
}

App o- - Header
App o- - Footer
App o- - Home
App o- - OpinionForm
App o- - SubmitIndicator

@enduml

PlantUML version 1.2021.7(Sun May 23 21:40:07 JST 2021)
(GPL source distribution)
Java Runtime: Java(TM) SE Runtime Environment
JVM: Java HotSpot(TM) 64-Bit Server VM
Default Encoding: MS932
Language: ja
Country: JP
--></g></svg>