<?xml version="1.0" encoding="UTF-8" standalone="no"?><svg xmlns="http://www.w3.org/2000/svg" xmlns:xlink="http://www.w3.org/1999/xlink" contentScriptType="application/ecmascript" contentStyleType="text/css" height="645px" preserveAspectRatio="none" style="width:840px;height:645px;background:#FEFEFE;" version="1.1" viewBox="0 0 840 645" width="840px" zoomAndPan="magnify"><defs><filter height="300%" id="f1ldcgfyjhqycb" width="300%" x="-1" y="-1"><feGaussianBlur result="blurOut" stdDeviation="2.0"/><feColorMatrix in="blurOut" result="blurOut2" type="matrix" values="0 0 0 0 0 0 0 0 0 0 0 0 0 0 0 0 0 0 .4 0"/><feOffset dx="4.0" dy="4.0" in="blurOut2" result="blurOut3"/><feBlend in="SourceGraphic" in2="blurOut3" mode="normal"/></filter></defs><g><!--MD5=[34480a6f694a75fd7b5a4e35724a2c70]
class clsAbsTeam--><rect codeLine="6" fill="#FEFECE" filter="url(#f1ldcgfyjhqycb)" height="151.2031" id="clsAbsTeam" style="stroke:#A80036;stroke-width:1.5;" width="325" x="253.5" y="7"/><ellipse cx="358.75" cy="27.0938" fill="#B4A7E5" rx="11" ry="11" style="stroke:#A80036;stroke-width:1.0;"/><path d="M359.9219,31.8125 L360.6563,31.8125 L360.6563,33.9531 L356.9688,33.9531 L356.9688,31.8125 L357.7031,31.8125 L357.7031,22.4688 L356.9688,22.4688 L356.9688,20.3281 L360.6563,20.3281 L360.6563,22.4688 L359.9219,22.4688 L359.9219,31.8125 Z " fill="#000000"/><text fill="#000000" font-family="sans-serif" font-size="12" font-style="italic" lengthAdjust="spacingAndGlyphs" textLength="110" x="377.25" y="24.457">«インターフェース»</text><text fill="#000000" font-family="sans-serif" font-size="12" font-style="italic" lengthAdjust="spacingAndGlyphs" textLength="67" x="398.75" y="39.5508">clsAbsTeam</text><line style="stroke:#A80036;stroke-width:1.5;" x1="254.5" x2="577.5" y1="47.1875" y2="47.1875"/><ellipse cx="264.5" cy="76.0234" fill="#84BE84" rx="3" ry="3" style="stroke:#038048;stroke-width:1.0;"/><text fill="#000000" font-family="sans-serif" font-size="11" lengthAdjust="spacingAndGlyphs" textLength="299" x="273.5" y="80.4424">arrayMenberName(ByVal idx As Long, ByVal name As String)</text><line style="stroke:#A80036;stroke-width:1.0;stroke-dasharray:1.0,2.0;" x1="254.5" x2="402" y1="62.1055" y2="62.1055"/><text fill="#000000" font-family="sans-serif" font-size="11" lengthAdjust="spacingAndGlyphs" textLength="28" x="402" y="66.1064">setter</text><line style="stroke:#A80036;stroke-width:1.0;stroke-dasharray:1.0,2.0;" x1="430" x2="577.5" y1="62.1055" y2="62.1055"/><ellipse cx="264.5" cy="107.6953" fill="#84BE84" rx="3" ry="3" style="stroke:#038048;stroke-width:1.0;"/><text fill="#000000" font-family="sans-serif" font-size="11" lengthAdjust="spacingAndGlyphs" textLength="218" x="273.5" y="112.1143">arrayMenberName(ByVal idx As Long):string</text><line style="stroke:#A80036;stroke-width:1.0;stroke-dasharray:1.0,2.0;" x1="254.5" x2="402" y1="93.7773" y2="93.7773"/><text fill="#000000" font-family="sans-serif" font-size="11" lengthAdjust="spacingAndGlyphs" textLength="28" x="402" y="97.7783">getter</text><line style="stroke:#A80036;stroke-width:1.0;stroke-dasharray:1.0,2.0;" x1="430" x2="577.5" y1="93.7773" y2="93.7773"/><line style="stroke:#A80036;stroke-width:1.0;" x1="254.5" x2="577.5" y1="118.5313" y2="118.5313"/><line style="stroke:#A80036;stroke-width:1.0;" x1="254.5" x2="577.5" y1="120.5313" y2="120.5313"/><ellipse cx="264.5" cy="147.3672" fill="#84BE84" rx="3" ry="3" style="stroke:#038048;stroke-width:1.0;"/><text fill="#000000" font-family="sans-serif" font-size="11" lengthAdjust="spacingAndGlyphs" textLength="180" x="273.5" y="151.7861">getMemberName(ByVal idx As Long)</text><line style="stroke:#A80036;stroke-width:1.0;stroke-dasharray:1.0,2.0;" x1="254.5" x2="394" y1="133.4492" y2="133.4492"/><text fill="#000000" font-family="sans-serif" font-size="11" lengthAdjust="spacingAndGlyphs" textLength="44" x="394" y="137.4502">メソッド</text><line style="stroke:#A80036;stroke-width:1.0;stroke-dasharray:1.0,2.0;" x1="438" x2="577.5" y1="133.4492" y2="133.4492"/><!--MD5=[66f173cd45e5d4a4c51d398047f2b60d]
class clsAnalyzeTeam--><rect codeLine="16" fill="#FEFECE" filter="url(#f1ldcgfyjhqycb)" height="182.875" id="clsAnalyzeTeam" style="stroke:#A80036;stroke-width:1.5;" width="392" x="7" y="218"/><ellipse cx="153.75" cy="238.0938" fill="#ADD1B2" rx="11" ry="11" style="stroke:#A80036;stroke-width:1.0;"/><path d="M157.4375,239.2969 Q157.1875,242.7813 156.0469,243.9375 Q155.0156,244.9531 153.6094,244.9531 Q152.2031,244.9531 151.1719,243.9375 Q149.4219,242.1719 149.4219,238.5 Q149.4219,234.25 151.2969,232.3438 Q152.3438,231.3281 153.6719,231.3281 Q155.0781,231.3281 155.9219,232.1406 Q157.4063,233.6563 157.3281,236.5313 L155.2031,236.5313 Q155.125,234.2031 154.4844,233.5625 Q154.2031,233.2656 153.6719,233.2656 Q153.2188,233.2656 152.8594,233.6406 Q151.625,234.8594 151.625,238.375 Q151.625,241.4219 152.6719,242.4375 Q153.0938,242.875 153.6094,242.875 Q154.0625,242.875 154.5,242.4375 Q155.0625,241.8906 155.1406,239.2969 L157.4375,239.2969 Z " fill="#000000"/><text fill="#000000" font-family="sans-serif" font-size="12" font-style="italic" lengthAdjust="spacingAndGlyphs" textLength="50" x="194.25" y="235.457">«クラス»</text><text fill="#000000" font-family="sans-serif" font-size="12" lengthAdjust="spacingAndGlyphs" textLength="90" x="174.25" y="250.5508">clsAnalyzeTeam</text><line style="stroke:#A80036;stroke-width:1.5;" x1="8" x2="398" y1="258.1875" y2="258.1875"/><rect fill="#F24D5C" height="6" style="stroke:#C82930;stroke-width:1.0;" width="6" x="15" y="284.0234"/><text fill="#000000" font-family="sans-serif" font-size="11" lengthAdjust="spacingAndGlyphs" textLength="146" x="27" y="291.4424">myArrayMenberName:string()</text><line style="stroke:#A80036;stroke-width:1.0;stroke-dasharray:1.0,2.0;" x1="8" x2="175.5" y1="273.1055" y2="273.1055"/><text fill="#000000" font-family="sans-serif" font-size="11" lengthAdjust="spacingAndGlyphs" textLength="55" x="175.5" y="277.1064">プロパティ</text><line style="stroke:#A80036;stroke-width:1.0;stroke-dasharray:1.0,2.0;" x1="230.5" x2="398" y1="273.1055" y2="273.1055"/><rect fill="#F24D5C" height="6" style="stroke:#C82930;stroke-width:1.0;" width="6" x="15" y="315.6953"/><text fill="#000000" font-family="sans-serif" font-size="11" lengthAdjust="spacingAndGlyphs" textLength="366" x="27" y="323.1143">clsAbsTeam_arrayMenberName(ByVal idx As Long, ByVal name As String)</text><line style="stroke:#A80036;stroke-width:1.0;stroke-dasharray:1.0,2.0;" x1="8" x2="189" y1="304.7773" y2="304.7773"/><text fill="#000000" font-family="sans-serif" font-size="11" lengthAdjust="spacingAndGlyphs" textLength="28" x="189" y="308.7783">setter</text><line style="stroke:#A80036;stroke-width:1.0;stroke-dasharray:1.0,2.0;" x1="217" x2="398" y1="304.7773" y2="304.7773"/><rect fill="#F24D5C" height="6" style="stroke:#C82930;stroke-width:1.0;" width="6" x="15" y="347.3672"/><text fill="#000000" font-family="sans-serif" font-size="11" lengthAdjust="spacingAndGlyphs" textLength="285" x="27" y="354.7861">clsAbsTeam_arrayMenberName(ByVal idx As Long):string</text><line style="stroke:#A80036;stroke-width:1.0;stroke-dasharray:1.0,2.0;" x1="8" x2="189" y1="336.4492" y2="336.4492"/><text fill="#000000" font-family="sans-serif" font-size="11" lengthAdjust="spacingAndGlyphs" textLength="28" x="189" y="340.4502">getter</text><line style="stroke:#A80036;stroke-width:1.0;stroke-dasharray:1.0,2.0;" x1="217" x2="398" y1="336.4492" y2="336.4492"/><line style="stroke:#A80036;stroke-width:1.0;" x1="8" x2="398" y1="361.2031" y2="361.2031"/><line style="stroke:#A80036;stroke-width:1.0;" x1="8" x2="398" y1="363.2031" y2="363.2031"/><rect fill="#F24D5C" height="6" style="stroke:#C82930;stroke-width:1.0;" width="6" x="15" y="387.0391"/><text fill="#000000" font-family="sans-serif" font-size="11" lengthAdjust="spacingAndGlyphs" textLength="180" x="27" y="394.458">getMemberName(ByVal idx As Long)</text><line style="stroke:#A80036;stroke-width:1.0;stroke-dasharray:1.0,2.0;" x1="8" x2="181" y1="376.1211" y2="376.1211"/><text fill="#000000" font-family="sans-serif" font-size="11" lengthAdjust="spacingAndGlyphs" textLength="44" x="181" y="380.1221">メソッド</text><line style="stroke:#A80036;stroke-width:1.0;stroke-dasharray:1.0,2.0;" x1="225" x2="398" y1="376.1211" y2="376.1211"/><!--MD5=[ba4d53c58195d4c95fc983294a783281]
class clsNewTeam--><rect codeLine="27" fill="#FEFECE" filter="url(#f1ldcgfyjhqycb)" height="151.2031" id="clsNewTeam" style="stroke:#A80036;stroke-width:1.5;" width="392" x="434" y="234"/><ellipse cx="590.25" cy="254.0938" fill="#ADD1B2" rx="11" ry="11" style="stroke:#A80036;stroke-width:1.0;"/><path d="M593.9375,255.2969 Q593.6875,258.7813 592.5469,259.9375 Q591.5156,260.9531 590.1094,260.9531 Q588.7031,260.9531 587.6719,259.9375 Q585.9219,258.1719 585.9219,254.5 Q585.9219,250.25 587.7969,248.3438 Q588.8438,247.3281 590.1719,247.3281 Q591.5781,247.3281 592.4219,248.1406 Q593.9063,249.6563 593.8281,252.5313 L591.7031,252.5313 Q591.625,250.2031 590.9844,249.5625 Q590.7031,249.2656 590.1719,249.2656 Q589.7188,249.2656 589.3594,249.6406 Q588.125,250.8594 588.125,254.375 Q588.125,257.4219 589.1719,258.4375 Q589.5938,258.875 590.1094,258.875 Q590.5625,258.875 591,258.4375 Q591.5625,257.8906 591.6406,255.2969 L593.9375,255.2969 Z " fill="#000000"/><text fill="#000000" font-family="sans-serif" font-size="12" font-style="italic" lengthAdjust="spacingAndGlyphs" textLength="50" x="621.25" y="251.457">«クラス»</text><text fill="#000000" font-family="sans-serif" font-size="12" lengthAdjust="spacingAndGlyphs" textLength="71" x="610.75" y="266.5508">clsNewTeam</text><line style="stroke:#A80036;stroke-width:1.5;" x1="435" x2="825" y1="274.1875" y2="274.1875"/><rect fill="#F24D5C" height="6" style="stroke:#C82930;stroke-width:1.0;" width="6" x="442" y="300.0234"/><text fill="#000000" font-family="sans-serif" font-size="11" lengthAdjust="spacingAndGlyphs" textLength="366" x="454" y="307.4424">clsAbsTeam_arrayMenberName(ByVal idx As Long, ByVal name As String)</text><line style="stroke:#A80036;stroke-width:1.0;stroke-dasharray:1.0,2.0;" x1="435" x2="616" y1="289.1055" y2="289.1055"/><text fill="#000000" font-family="sans-serif" font-size="11" lengthAdjust="spacingAndGlyphs" textLength="28" x="616" y="293.1064">setter</text><line style="stroke:#A80036;stroke-width:1.0;stroke-dasharray:1.0,2.0;" x1="644" x2="825" y1="289.1055" y2="289.1055"/><rect fill="#F24D5C" height="6" style="stroke:#C82930;stroke-width:1.0;" width="6" x="442" y="331.6953"/><text fill="#000000" font-family="sans-serif" font-size="11" lengthAdjust="spacingAndGlyphs" textLength="285" x="454" y="339.1143">clsAbsTeam_arrayMenberName(ByVal idx As Long):string</text><line style="stroke:#A80036;stroke-width:1.0;stroke-dasharray:1.0,2.0;" x1="435" x2="616" y1="320.7773" y2="320.7773"/><text fill="#000000" font-family="sans-serif" font-size="11" lengthAdjust="spacingAndGlyphs" textLength="28" x="616" y="324.7783">getter</text><line style="stroke:#A80036;stroke-width:1.0;stroke-dasharray:1.0,2.0;" x1="644" x2="825" y1="320.7773" y2="320.7773"/><line style="stroke:#A80036;stroke-width:1.0;" x1="435" x2="825" y1="345.5313" y2="345.5313"/><line style="stroke:#A80036;stroke-width:1.0;" x1="435" x2="825" y1="347.5313" y2="347.5313"/><rect fill="#F24D5C" height="6" style="stroke:#C82930;stroke-width:1.0;" width="6" x="442" y="371.3672"/><text fill="#000000" font-family="sans-serif" font-size="11" lengthAdjust="spacingAndGlyphs" textLength="180" x="454" y="378.7861">getMemberName(ByVal idx As Long)</text><line style="stroke:#A80036;stroke-width:1.0;stroke-dasharray:1.0,2.0;" x1="435" x2="608" y1="360.4492" y2="360.4492"/><text fill="#000000" font-family="sans-serif" font-size="11" lengthAdjust="spacingAndGlyphs" textLength="44" x="608" y="364.4502">メソッド</text><line style="stroke:#A80036;stroke-width:1.0;stroke-dasharray:1.0,2.0;" x1="652" x2="825" y1="360.4492" y2="360.4492"/><!--MD5=[6912b6241eae309c58a969a26ecbe2d9]
class M_Calling--><rect codeLine="36" fill="#FEFECE" filter="url(#f1ldcgfyjhqycb)" height="170.875" id="M_Calling" style="stroke:#A80036;stroke-width:1.5;" width="261" x="285.5" y="461"/><ellipse cx="376.75" cy="481.0938" fill="#DA70D6" rx="11" ry="11" style="stroke:#A80036;stroke-width:1.0;"/><path d="M374.2188,478.0469 L374.4375,487.9531 L372.4219,487.9531 L372.4219,474.3281 L375.1875,474.3281 L376.4063,482.9531 L376.2813,482.9531 L377.5156,474.3281 L380.2813,474.3281 L380.2813,487.9531 L378.2656,487.9531 L378.4688,478.0625 L378.6094,478.0938 L377.1719,487.9531 L375.5156,487.9531 L374.0938,478.0625 L374.2188,478.0469 Z " fill="#000000"/><text fill="#000000" font-family="sans-serif" font-size="12" font-style="italic" lengthAdjust="spacingAndGlyphs" textLength="74" x="395.25" y="478.457">«モジュール»</text><text fill="#000000" font-family="sans-serif" font-size="12" lengthAdjust="spacingAndGlyphs" textLength="56" x="404.25" y="493.5508">M_Calling</text><line style="stroke:#A80036;stroke-width:1.5;" x1="286.5" x2="545.5" y1="501.1875" y2="501.1875"/><text fill="#000000" font-family="sans-serif" font-size="11" lengthAdjust="spacingAndGlyphs" textLength="88" x="291.5" y="516.6064">チームクラスから</text><text fill="#000000" font-family="sans-serif" font-size="11" lengthAdjust="spacingAndGlyphs" textLength="121" x="291.5" y="530.4424">情報取得する関数を持つ</text><text fill="#000000" font-family="sans-serif" font-size="11" lengthAdjust="spacingAndGlyphs" textLength="55" x="291.5" y="544.2783">モジュール</text><line style="stroke:#A80036;stroke-width:1.0;" x1="286.5" x2="545.5" y1="550.6953" y2="550.6953"/><line style="stroke:#A80036;stroke-width:1.0;" x1="286.5" x2="545.5" y1="552.6953" y2="552.6953"/><ellipse cx="296.5" cy="579.5313" fill="#84BE84" rx="3" ry="3" style="stroke:#038048;stroke-width:1.0;"/><text fill="#000000" font-family="sans-serif" font-size="11" lengthAdjust="spacingAndGlyphs" textLength="74" x="305.5" y="583.9502">void testFunc()</text><rect fill="#F24D5C" height="6" style="stroke:#C82930;stroke-width:1.0;" width="6" x="293.5" y="590.3672"/><text fill="#000000" font-family="sans-serif" font-size="11" lengthAdjust="spacingAndGlyphs" textLength="145" x="305.5" y="597.7861">outputSelectedMemberName(</text><text fill="#000000" font-family="sans-serif" font-size="11" lengthAdjust="spacingAndGlyphs" textLength="235" x="305.5" y="611.6221">ByVal collTeam As Collection, ByVal idx As Long</text><text fill="#000000" font-family="sans-serif" font-size="11" lengthAdjust="spacingAndGlyphs" textLength="46" x="305.5" y="625.458">):Boolean</text><line style="stroke:#A80036;stroke-width:1.0;stroke-dasharray:1.0,2.0;" x1="286.5" x2="405" y1="565.6133" y2="565.6133"/><text fill="#000000" font-family="sans-serif" font-size="11" lengthAdjust="spacingAndGlyphs" textLength="22" x="405" y="569.6143">関数</text><line style="stroke:#A80036;stroke-width:1.0;stroke-dasharray:1.0,2.0;" x1="427" x2="545.5" y1="565.6133" y2="565.6133"/><!--MD5=[3ec7088be60ccf48ea76b06e3ed87ffd]
reverse link clsAbsTeam to clsAnalyzeTeam--><path codeLine="48" d="M331.58,172.67 C317.58,187.46 303.05,202.82 289.01,217.65 " fill="none" id="clsAbsTeam-backto-clsAnalyzeTeam" style="stroke:#A80036;stroke-width:1.0;stroke-dasharray:7.0,7.0;"/><polygon fill="none" points="326.54,167.82,345.37,158.11,336.7,177.45,326.54,167.82" style="stroke:#A80036;stroke-width:1.0;"/><!--MD5=[8b06ad51294885449c6960ed1f75836e]
reverse link clsAbsTeam to clsNewTeam--><path codeLine="49" d="M500.76,172.62 C520,192.85 540.25,214.14 558.87,233.71 " fill="none" id="clsAbsTeam-backto-clsNewTeam" style="stroke:#A80036;stroke-width:1.0;stroke-dasharray:7.0,7.0;"/><polygon fill="none" points="495.67,177.43,486.96,158.11,505.82,167.78,495.67,177.43" style="stroke:#A80036;stroke-width:1.0;"/><!--MD5=[34a13babe36010a07fbf4989492a613a]
link clsAnalyzeTeam to M_Calling--><path codeLine="50" d="M285.05,401.02 C302.86,420.67 321.64,441.39 339.24,460.81 " fill="none" id="clsAnalyzeTeam-M_Calling" style="stroke:#A80036;stroke-width:1.0;"/><!--MD5=[9fcf8480b68413a3f9be44a5833f6360]
link clsNewTeam to M_Calling--><path codeLine="51" d="M562,385.18 C540.09,409.24 515.65,436.07 493.14,460.79 " fill="none" id="clsNewTeam-M_Calling" style="stroke:#A80036;stroke-width:1.0;"/><!--MD5=[23c3e3fc1e500217f8fa3ce63b27ddce]
@startuml

skinparam{
    BackgroundColor #fefefe
}

interface clsAbsTeam<<インターフェース>>{
    ..setter..
    +arrayMenberName(ByVal idx As Long, ByVal name As String)
    ..getter..
    +arrayMenberName(ByVal idx As Long):string
    ==
    ..メソッド..
    +getMemberName(ByVal idx As Long)
}

class clsAnalyzeTeam<<クラス>>{
    ..プロパティ..
    -myArrayMenberName:string()
    ..setter..
    -clsAbsTeam_arrayMenberName(ByVal idx As Long, ByVal name As String)
    ..getter..
    -clsAbsTeam_arrayMenberName(ByVal idx As Long):string
    ==
    ..メソッド..
    -getMemberName(ByVal idx As Long)
}
class clsNewTeam<<クラス>>{
    ..setter..
    -clsAbsTeam_arrayMenberName(ByVal idx As Long, ByVal name As String)
    ..getter..
    -clsAbsTeam_arrayMenberName(ByVal idx As Long):string
    ==
    ..メソッド..
    -getMemberName(ByVal idx As Long)
}
class M_Calling<<モジュール>><< (M,orchid) >>{
    チームクラスから
    情報取得する関数を持つ
    モジュール
    ==
    ..関数..
    +void testFunc()
    -outputSelectedMemberName(
        ByVal collTeam As Collection, ByVal idx As Long
    ):Boolean
}

clsAbsTeam <|.. clsAnalyzeTeam
clsAbsTeam <|.. clsNewTeam
clsAnalyzeTeam - - M_Calling
clsNewTeam - - M_Calling

@enduml

PlantUML version 1.2020.22(Sun Dec 06 18:36:27 JST 2020)
(GPL source distribution)
Java Runtime: Java(TM) SE Runtime Environment
JVM: Java HotSpot(TM) 64-Bit Server VM
Default Encoding: MS932
Language: ja
Country: JP
--></g></svg>