<?xml version="1.0" encoding="UTF-8" standalone="no"?><svg xmlns="http://www.w3.org/2000/svg" xmlns:xlink="http://www.w3.org/1999/xlink" contentScriptType="application/ecmascript" contentStyleType="text/css" height="350px" preserveAspectRatio="none" style="width:281px;height:350px;background:#FEFEFE;" version="1.1" viewBox="0 0 281 350" width="281px" zoomAndPan="magnify"><defs><filter height="300%" id="f1xiqycgqoapue" width="300%" x="-1" y="-1"><feGaussianBlur result="blurOut" stdDeviation="2.0"/><feColorMatrix in="blurOut" result="blurOut2" type="matrix" values="0 0 0 0 0 0 0 0 0 0 0 0 0 0 0 0 0 0 .4 0"/><feOffset dx="4.0" dy="4.0" in="blurOut2" result="blurOut3"/><feBlend in="SourceGraphic" in2="blurOut3" mode="normal"/></filter></defs><g><!--MD5=[34480a6f694a75fd7b5a4e35724a2c70]
class clsAbsTeam--><rect codeLine="6" fill="#FEFECE" filter="url(#f1xiqycgqoapue)" height="56.1875" id="clsAbsTeam" style="stroke:#A80036;stroke-width:1.5;" width="138" x="73" y="7"/><ellipse cx="88" cy="27.0938" fill="#B4A7E5" rx="11" ry="11" style="stroke:#A80036;stroke-width:1.0;"/><path d="M89.1719,31.8125 L89.9063,31.8125 L89.9063,33.9531 L86.2188,33.9531 L86.2188,31.8125 L86.9531,31.8125 L86.9531,22.4688 L86.2188,22.4688 L86.2188,20.3281 L89.9063,20.3281 L89.9063,22.4688 L89.1719,22.4688 L89.1719,31.8125 Z " fill="#000000"/><text fill="#000000" font-family="sans-serif" font-size="12" font-style="italic" lengthAdjust="spacingAndGlyphs" textLength="110" x="100" y="24.457">«インターフェース»</text><text fill="#000000" font-family="sans-serif" font-size="12" font-style="italic" lengthAdjust="spacingAndGlyphs" textLength="67" x="121.5" y="39.5508">clsAbsTeam</text><line style="stroke:#A80036;stroke-width:1.5;" x1="74" x2="210" y1="47.1875" y2="47.1875"/><line style="stroke:#A80036;stroke-width:1.5;" x1="74" x2="210" y1="55.1875" y2="55.1875"/><!--MD5=[66f173cd45e5d4a4c51d398047f2b60d]
class clsAnalyzeTeam--><rect codeLine="8" fill="#FEFECE" filter="url(#f1xiqycgqoapue)" height="56.1875" id="clsAnalyzeTeam" style="stroke:#A80036;stroke-width:1.5;" width="122" x="7" y="123"/><ellipse cx="22" cy="143.0938" fill="#ADD1B2" rx="11" ry="11" style="stroke:#A80036;stroke-width:1.0;"/><path d="M25.6875,144.2969 Q25.4375,147.7813 24.2969,148.9375 Q23.2656,149.9531 21.8594,149.9531 Q20.4531,149.9531 19.4219,148.9375 Q17.6719,147.1719 17.6719,143.5 Q17.6719,139.25 19.5469,137.3438 Q20.5938,136.3281 21.9219,136.3281 Q23.3281,136.3281 24.1719,137.1406 Q25.6563,138.6563 25.5781,141.5313 L23.4531,141.5313 Q23.375,139.2031 22.7344,138.5625 Q22.4531,138.2656 21.9219,138.2656 Q21.4688,138.2656 21.1094,138.6406 Q19.875,139.8594 19.875,143.375 Q19.875,146.4219 20.9219,147.4375 Q21.3438,147.875 21.8594,147.875 Q22.3125,147.875 22.75,147.4375 Q23.3125,146.8906 23.3906,144.2969 L25.6875,144.2969 Z " fill="#000000"/><text fill="#000000" font-family="sans-serif" font-size="12" font-style="italic" lengthAdjust="spacingAndGlyphs" textLength="50" x="56" y="140.457">«クラス»</text><text fill="#000000" font-family="sans-serif" font-size="12" lengthAdjust="spacingAndGlyphs" textLength="90" x="36" y="155.5508">clsAnalyzeTeam</text><line style="stroke:#A80036;stroke-width:1.5;" x1="8" x2="128" y1="163.1875" y2="163.1875"/><line style="stroke:#A80036;stroke-width:1.5;" x1="8" x2="128" y1="171.1875" y2="171.1875"/><!--MD5=[ba4d53c58195d4c95fc983294a783281]
class clsNewTeam--><rect codeLine="9" fill="#FEFECE" filter="url(#f1xiqycgqoapue)" height="56.1875" id="clsNewTeam" style="stroke:#A80036;stroke-width:1.5;" width="103" x="164.5" y="123"/><ellipse cx="179.5" cy="143.0938" fill="#ADD1B2" rx="11" ry="11" style="stroke:#A80036;stroke-width:1.0;"/><path d="M183.1875,144.2969 Q182.9375,147.7813 181.7969,148.9375 Q180.7656,149.9531 179.3594,149.9531 Q177.9531,149.9531 176.9219,148.9375 Q175.1719,147.1719 175.1719,143.5 Q175.1719,139.25 177.0469,137.3438 Q178.0938,136.3281 179.4219,136.3281 Q180.8281,136.3281 181.6719,137.1406 Q183.1563,138.6563 183.0781,141.5313 L180.9531,141.5313 Q180.875,139.2031 180.2344,138.5625 Q179.9531,138.2656 179.4219,138.2656 Q178.9688,138.2656 178.6094,138.6406 Q177.375,139.8594 177.375,143.375 Q177.375,146.4219 178.4219,147.4375 Q178.8438,147.875 179.3594,147.875 Q179.8125,147.875 180.25,147.4375 Q180.8125,146.8906 180.8906,144.2969 L183.1875,144.2969 Z " fill="#000000"/><text fill="#000000" font-family="sans-serif" font-size="12" font-style="italic" lengthAdjust="spacingAndGlyphs" textLength="50" x="204" y="140.457">«クラス»</text><text fill="#000000" font-family="sans-serif" font-size="12" lengthAdjust="spacingAndGlyphs" textLength="71" x="193.5" y="155.5508">clsNewTeam</text><line style="stroke:#A80036;stroke-width:1.5;" x1="165.5" x2="266.5" y1="163.1875" y2="163.1875"/><line style="stroke:#A80036;stroke-width:1.5;" x1="165.5" x2="266.5" y1="171.1875" y2="171.1875"/><!--MD5=[6912b6241eae309c58a969a26ecbe2d9]
class M_Calling--><rect codeLine="10" fill="#FEFECE" filter="url(#f1xiqycgqoapue)" height="97.6953" id="M_Calling" style="stroke:#A80036;stroke-width:1.5;" width="133" x="75.5" y="239"/><ellipse cx="104.45" cy="259.0938" fill="#DA70D6" rx="11" ry="11" style="stroke:#A80036;stroke-width:1.0;"/><path d="M101.9188,256.0469 L102.1375,265.9531 L100.1219,265.9531 L100.1219,252.3281 L102.8875,252.3281 L104.1063,260.9531 L103.9813,260.9531 L105.2156,252.3281 L107.9813,252.3281 L107.9813,265.9531 L105.9656,265.9531 L106.1688,256.0625 L106.3094,256.0938 L104.8719,265.9531 L103.2156,265.9531 L101.7938,256.0625 L101.9188,256.0469 Z " fill="#000000"/><text fill="#000000" font-family="sans-serif" font-size="12" font-style="italic" lengthAdjust="spacingAndGlyphs" textLength="74" x="119.55" y="256.457">«モジュール»</text><text fill="#000000" font-family="sans-serif" font-size="12" lengthAdjust="spacingAndGlyphs" textLength="56" x="128.55" y="271.5508">M_Calling</text><line style="stroke:#A80036;stroke-width:1.5;" x1="76.5" x2="207.5" y1="279.1875" y2="279.1875"/><text fill="#000000" font-family="sans-serif" font-size="11" lengthAdjust="spacingAndGlyphs" textLength="88" x="81.5" y="294.6064">チームクラスから</text><text fill="#000000" font-family="sans-serif" font-size="11" lengthAdjust="spacingAndGlyphs" textLength="121" x="81.5" y="308.4424">情報取得する関数を持つ</text><text fill="#000000" font-family="sans-serif" font-size="11" lengthAdjust="spacingAndGlyphs" textLength="55" x="81.5" y="322.2783">モジュール</text><line style="stroke:#A80036;stroke-width:1.0;" x1="76.5" x2="207.5" y1="328.6953" y2="328.6953"/><line style="stroke:#A80036;stroke-width:1.0;" x1="76.5" x2="207.5" y1="330.6953" y2="330.6953"/><!--MD5=[3ec7088be60ccf48ea76b06e3ed87ffd]
reverse link clsAbsTeam to clsAnalyzeTeam--><path codeLine="17" d="M113.57,79.8 C104.18,94.26 94.01,109.93 85.67,122.78 " fill="none" id="clsAbsTeam-backto-clsAnalyzeTeam" style="stroke:#A80036;stroke-width:1.0;stroke-dasharray:7.0,7.0;"/><polygon fill="none" points="107.7,75.98,124.46,63.02,119.45,83.6,107.7,75.98" style="stroke:#A80036;stroke-width:1.0;"/><!--MD5=[8b06ad51294885449c6960ed1f75836e]
reverse link clsAbsTeam to clsNewTeam--><path codeLine="18" d="M170.43,79.8 C179.82,94.26 189.99,109.93 198.33,122.78 " fill="none" id="clsAbsTeam-backto-clsNewTeam" style="stroke:#A80036;stroke-width:1.0;stroke-dasharray:7.0,7.0;"/><polygon fill="none" points="164.55,83.6,159.54,63.02,176.3,75.98,164.55,83.6" style="stroke:#A80036;stroke-width:1.0;"/><!--MD5=[34a13babe36010a07fbf4989492a613a]
link clsAnalyzeTeam to M_Calling--><path codeLine="19" d="M82.98,179.32 C92.35,196.42 104.69,218.94 115.67,238.96 " fill="none" id="clsAnalyzeTeam-M_Calling" style="stroke:#A80036;stroke-width:1.0;"/><!--MD5=[9fcf8480b68413a3f9be44a5833f6360]
link clsNewTeam to M_Calling--><path codeLine="20" d="M201.02,179.32 C191.65,196.42 179.31,218.94 168.33,238.96 " fill="none" id="clsNewTeam-M_Calling" style="stroke:#A80036;stroke-width:1.0;"/><!--MD5=[a3fc9013af3b8b51b99ec6653ad54056]
@startuml

skinparam{
    BackgroundColor #fefefe
}

interface clsAbsTeam<<インターフェース>>

class clsAnalyzeTeam<<クラス>>
class clsNewTeam<<クラス>>
class M_Calling<<モジュール>><< (M,orchid) >>{
    チームクラスから
    情報取得する関数を持つ
    モジュール
    ==
}

clsAbsTeam <|.. clsAnalyzeTeam
clsAbsTeam <|.. clsNewTeam
clsAnalyzeTeam - - M_Calling
clsNewTeam - - M_Calling

@enduml

PlantUML version 1.2020.22(Sun Dec 06 18:36:27 JST 2020)
(GPL source distribution)
Java Runtime: Java(TM) SE Runtime Environment
JVM: Java HotSpot(TM) 64-Bit Server VM
Default Encoding: MS932
Language: ja
Country: JP
--></g></svg>